<svg width="56" height="15" viewBox="0 0 56 15" fill="none" xmlns="http://www.w3.org/2000/svg">
<path d="M10.7299 14.5136C14.6957 14.5326 18.3155 11.2786 18.3155 7.31988C18.3155 2.99084 14.6957 -0.00143932 10.7299 5.19397e-07H7.31677C3.3034 -0.00143932 0 2.99174 0 7.31988C0 11.2794 3.3034 14.5326 7.31677 14.5136H10.7299Z" fill="#0079BE"/>
<path d="M7.3344 0.599854C3.66709 0.601005 0.695352 3.57428 0.694489 7.24389C0.695352 10.9129 3.66706 13.8859 7.3344 13.887C11.0026 13.8859 13.9749 10.9129 13.9754 7.24389C13.9749 3.57428 11.0026 0.601005 7.3344 0.599854ZM3.12554 7.24389C3.129 5.45071 4.24865 3.9216 5.82752 3.31396V11.1729C4.24865 10.5656 3.12897 9.03733 3.12554 7.24389ZM8.84071 11.1746V3.3137C10.4201 3.91987 11.5415 5.44985 11.5444 7.24389C11.5415 9.03849 10.4201 10.5673 8.84071 11.1746Z" fill="white"/>
<path d="M20.6438 3.12254C20.6438 2.43599 20.2859 2.48121 19.9428 2.47375V2.27534C20.2402 2.29002 20.5451 2.29002 20.8431 2.29002C21.1635 2.29002 21.5985 2.27534 22.1634 2.27534C24.1389 2.27534 25.2148 3.59538 25.2148 4.94708C25.2148 5.703 24.7726 7.6033 22.0715 7.6033C21.6826 7.6033 21.3235 7.5883 20.9651 7.5883C20.6219 7.5883 20.2859 7.59582 19.9427 7.6033V7.40518C20.4002 7.35908 20.6219 7.34384 20.6438 6.82464V3.12254H20.6438ZM21.3918 6.70283C21.3918 7.29057 21.8119 7.35911 22.1855 7.35911C23.8341 7.35911 24.3753 6.11479 24.3753 4.97732C24.3753 3.55043 23.4595 2.52008 21.9872 2.52008C21.674 2.52008 21.53 2.54254 21.3918 2.55063L21.3918 6.70283ZM25.4826 7.40521H25.6271C25.8404 7.40521 25.9933 7.40521 25.9933 7.15263V5.08447C25.9933 4.74902 25.879 4.70234 25.5966 4.55058V4.42819C25.9551 4.32049 26.3829 4.17651 26.4128 4.15347C26.4667 4.12294 26.5121 4.11488 26.5504 4.11488C26.5882 4.11488 26.604 4.16096 26.604 4.22229V7.15263C26.604 7.40521 26.7718 7.40521 26.9855 7.40521H27.115V7.60362C26.8553 7.60362 26.5882 7.58839 26.3141 7.58839C26.0394 7.58839 25.7645 7.59587 25.4826 7.60362V7.40521H25.4826ZM26.2988 2.93965C26.1002 2.93965 25.9251 2.75653 25.9251 2.55809C25.9251 2.36688 26.1082 2.19093 26.2988 2.19093C26.4966 2.19093 26.6728 2.35194 26.6728 2.55809C26.6728 2.76428 26.5044 2.93965 26.2988 2.93965ZM27.8399 5.12997C27.8399 4.84776 27.7555 4.77174 27.3977 4.6266V4.48178C27.7256 4.37494 28.038 4.2756 28.4044 4.11491C28.4272 4.11491 28.4496 4.13046 28.4496 4.19122V4.68765C28.8853 4.37495 29.2593 4.11488 29.7711 4.11488C30.4189 4.11488 30.6478 4.58827 30.6478 5.1835V7.15266C30.6478 7.40521 30.8156 7.40521 31.0295 7.40521H31.1669V7.60362C30.8991 7.60362 30.6322 7.58839 30.3582 7.58839C30.0832 7.58839 29.8082 7.59587 29.5339 7.60362V7.40521H29.6709C29.8851 7.40521 30.0368 7.40521 30.0368 7.15266V5.1763C30.0368 4.74061 29.7711 4.52722 29.3355 4.52722C29.0917 4.52722 28.7024 4.72566 28.4496 4.89381V7.1526C28.4496 7.40518 28.6183 7.40518 28.8323 7.40518H28.9693V7.60359C28.7024 7.60359 28.4349 7.58833 28.1603 7.58833C27.8859 7.58833 27.6107 7.59585 27.3363 7.60359V7.40518H27.4739C27.6875 7.40518 27.8398 7.40518 27.8398 7.1526V5.12997H27.8399ZM31.747 5.49681C31.7311 5.56567 31.7311 5.67996 31.747 5.93971C31.7919 6.66453 32.2586 7.25979 32.8681 7.25979C33.2881 7.25979 33.6169 7.03085 33.8988 6.74864L34.0053 6.85577C33.6541 7.32112 33.2193 7.71792 32.594 7.71792C31.3805 7.71792 31.1363 6.54214 31.1363 6.05406C31.1363 4.55775 32.1434 4.11485 32.6771 4.11485C33.2956 4.11485 33.9598 4.50393 33.967 5.31309C33.967 5.35945 33.967 5.40466 33.9598 5.45103L33.8907 5.49681H31.747ZM33.0978 5.25236C33.2881 5.25236 33.3106 5.15301 33.3106 5.06172C33.3106 4.67236 33.0742 4.35934 32.6467 4.35934C32.1817 4.35934 31.8613 4.70231 31.7697 5.25236H33.0978ZM34.1427 7.40521H34.3488C34.5618 7.40521 34.7144 7.40521 34.7144 7.15263V5.00813C34.7144 4.77171 34.4326 4.72563 34.3177 4.66458V4.55055C34.8748 4.31355 35.1802 4.11485 35.2496 4.11485C35.2948 4.11485 35.3173 4.13789 35.3173 4.21449V4.90129H35.3334C35.5237 4.60382 35.8447 4.11485 36.3097 4.11485C36.5005 4.11485 36.7444 4.24444 36.7444 4.51945C36.7444 4.72563 36.5999 4.90936 36.3863 4.90936C36.1488 4.90936 36.1488 4.72563 35.8822 4.72563C35.7523 4.72563 35.3254 4.90129 35.3254 5.35945V7.15263C35.3254 7.40518 35.4777 7.40518 35.6916 7.40518H36.1185V7.60362C35.6988 7.59582 35.3795 7.58836 35.0507 7.58836C34.7381 7.58836 34.4173 7.59585 34.1427 7.60362V7.40521H34.1427ZM37.0804 6.54214C37.1797 7.04608 37.4846 7.47375 38.042 7.47375C38.4911 7.47375 38.6592 7.19903 38.6592 6.93179C38.6592 6.03102 36.9963 6.32101 36.9963 5.09225C36.9963 4.66461 37.34 4.11488 38.179 4.11488C38.4229 4.11488 38.7507 4.18399 39.0481 4.3369L39.1023 5.11474H38.9264C38.8504 4.63438 38.5835 4.35939 38.0946 4.35939C37.7895 4.35939 37.4998 4.53508 37.4998 4.86305C37.4998 5.75691 39.2699 5.48132 39.2699 6.67956C39.2699 7.18322 38.8653 7.71797 37.9573 7.71797C37.6521 7.71797 37.2937 7.61114 37.0268 7.4588L36.9427 6.58081L37.0804 6.54214ZM46.1597 3.65698H45.9694C45.8243 2.76428 45.1909 2.40518 44.3367 2.40518C43.4586 2.40518 42.1844 2.99261 42.1844 4.82441C42.1844 6.36734 43.2838 7.47369 44.4585 7.47369C45.2136 7.47369 45.8398 6.95477 45.9924 6.15309L46.1675 6.19859L45.9924 7.313C45.6719 7.51199 44.8097 7.71792 44.3056 7.71792C42.5206 7.71792 41.3917 6.56521 41.3917 4.84773C41.3917 3.28291 42.7877 2.16041 44.2831 2.16041C44.901 2.16041 45.4961 2.35968 46.0837 2.56587L46.1597 3.65698ZM46.435 7.40521H46.5795C46.7934 7.40521 46.9466 7.40521 46.9466 7.15263V2.90167C46.9466 2.40521 46.832 2.38992 46.5418 2.30612V2.18402C46.8469 2.08499 47.1674 1.94731 47.3278 1.85548C47.4109 1.80998 47.4725 1.77136 47.495 1.77136C47.5417 1.77136 47.5569 1.81747 47.5569 1.87877V7.15263C47.5569 7.40521 47.7245 7.40521 47.9384 7.40521H48.0671V7.60362C47.8088 7.60362 47.5417 7.58836 47.2667 7.58836C46.9924 7.58836 46.7177 7.59587 46.4349 7.60362V7.40521H46.435ZM51.3341 7.18319C51.3341 7.32112 51.4176 7.32861 51.5471 7.32861C51.639 7.32861 51.753 7.32112 51.8526 7.32112V7.48181C51.5241 7.51205 50.8985 7.67245 50.7534 7.71794L50.7151 7.69488V7.07721C50.2579 7.45097 49.9064 7.71794 49.3642 7.71794C48.9523 7.71794 48.5251 7.45097 48.5251 6.81024V4.85551C48.5251 4.6571 48.4948 4.46614 48.0681 4.42816V4.28303C48.3431 4.27554 48.9523 4.22972 49.0519 4.22972C49.1366 4.22972 49.1366 4.28303 49.1366 4.45091V6.41972C49.1366 6.64926 49.1366 7.30552 49.7999 7.30552C50.0593 7.30552 50.4024 7.10711 50.7226 6.84073V4.78637C50.7226 4.63432 50.3567 4.55052 50.0826 4.47389V4.33653C50.7684 4.29045 51.1965 4.22969 51.2722 4.22969C51.3341 4.22969 51.3341 4.28297 51.3341 4.36734V7.18319H51.3341ZM52.8523 4.66461C53.1572 4.40512 53.5691 4.11488 53.9892 4.11488C54.8745 4.11488 55.408 4.88664 55.408 5.71797C55.408 6.71783 54.6759 7.71792 53.5841 7.71792C53.0198 7.71792 52.7224 7.53448 52.5237 7.45094L52.2952 7.62603L52.1354 7.54254C52.2031 7.09216 52.2419 6.64926 52.2419 6.18391V2.90164C52.2419 2.40521 52.1267 2.38992 51.8371 2.30612V2.18402C52.1432 2.08499 52.4627 1.94731 52.6231 1.85545C52.7072 1.80995 52.7679 1.77136 52.7915 1.77136C52.837 1.77136 52.8522 1.81747 52.8522 1.87877V4.66458H52.8523V4.66461ZM52.8523 6.74058C52.8523 7.03085 53.1267 7.51982 53.638 7.51982C54.4544 7.51982 54.7976 6.71783 54.7976 6.03825C54.7976 5.21409 54.1726 4.52728 53.5772 4.52728C53.2942 4.52728 53.0581 4.71072 52.8523 4.88664V6.74058H52.8523ZM19.934 12.0415H19.9925C20.1416 12.0415 20.2994 12.0213 20.2994 11.8051V9.62916C20.2994 9.41258 20.1416 9.39217 19.9925 9.39217H19.934V9.26748C20.0961 9.26748 20.3452 9.28389 20.5493 9.28389C20.7566 9.28389 21.0053 9.26748 21.2005 9.26748V9.39217H21.1421C20.9932 9.39217 20.8352 9.41261 20.8352 9.62916V11.8051C20.8352 12.0213 20.9932 12.0415 21.1421 12.0415H21.2005V12.1668C21.0013 12.1668 20.7517 12.1504 20.5447 12.1504C20.3412 12.1504 20.0961 12.1668 19.934 12.1668V12.0415Z" fill="#211E1F"/>
<path d="M21.2004 12.1843C20.9997 12.1843 20.751 12.1676 20.5443 12.1676C20.3413 12.1676 20.0972 12.1843 19.9339 12.1843H19.9161V12.0236H19.9921C20.1426 12.0202 20.2797 12.0081 20.2811 11.8051V9.62914C20.2797 9.42612 20.1427 9.41256 19.9921 9.40971H19.9161V9.24902H19.9339C20.0972 9.24902 20.3459 9.26544 20.5489 9.26544C20.7556 9.26544 21.0041 9.24902 21.2004 9.24902H21.2188V9.40971H21.1422C20.9917 9.41259 20.8537 9.42612 20.8529 9.62914V11.8051C20.8537 12.0081 20.9916 12.0202 21.1422 12.0236H21.2188V12.1843H21.2004ZM21.1825 12.1489V12.0602H21.1423C20.994 12.0602 20.8175 12.0345 20.8166 11.8051V9.62914C20.8175 9.39963 20.994 9.37371 21.1423 9.37371H21.1825V9.2856C20.9908 9.2856 20.7504 9.30172 20.5489 9.30172C20.3516 9.30172 20.113 9.28675 19.9523 9.2856V9.37371H19.9921C20.14 9.37371 20.3171 9.39963 20.3171 9.62914V11.8051C20.3171 12.0346 20.14 12.0602 19.9921 12.0602H19.9523V12.1489C20.113 12.1471 20.3476 12.1322 20.5443 12.1322C20.7464 12.1322 20.9868 12.1477 21.1825 12.1489ZM24.0526 11.348L24.061 11.34V9.78263C24.061 9.44167 23.824 9.39214 23.6997 9.39214H23.6081V9.26742C23.8036 9.26742 23.9944 9.28384 24.1894 9.28384C24.3595 9.28384 24.5305 9.26742 24.7004 9.26742V9.39214H24.6382C24.4634 9.39214 24.2682 9.42523 24.2682 9.91941V11.8096C24.2682 11.9548 24.2725 12.0999 24.293 12.2287H24.1349L21.9973 9.84457V11.556C21.9973 11.9174 22.0672 12.0415 22.3874 12.0415H22.4576V12.1667C22.2794 12.1667 22.1012 12.1503 21.9224 12.1503C21.7361 12.1503 21.545 12.1667 21.3578 12.1667V12.0415H21.416C21.7025 12.0415 21.7894 11.8468 21.7894 11.5148V9.76538C21.7894 9.53299 21.598 9.39217 21.412 9.39217H21.3579V9.26748C21.5156 9.26748 21.6774 9.28387 21.8349 9.28387C21.9596 9.28387 22.0802 9.26748 22.2046 9.26748L24.0526 11.348Z" fill="#211E1F"/>
<path d="M24.2932 12.2468L24.1219 12.2404L22.015 9.89147V11.5559C22.0199 11.917 22.0749 12.0196 22.3876 12.0236H22.4766V12.1843H22.4581C22.2785 12.1843 22.0997 12.1676 21.9226 12.1676C21.7366 12.1676 21.546 12.1843 21.3577 12.1843H21.3396V12.0236H21.4162C21.6906 12.0222 21.7689 11.8459 21.772 11.5148V9.76563C21.7714 9.54446 21.5901 9.41027 21.4121 9.40969H21.3396V9.24958H21.3577C21.5164 9.24958 21.679 9.26542 21.8348 9.26542C21.9583 9.26542 22.0786 9.24958 22.2185 9.25563L24.0433 11.3103V9.78293C24.041 9.45234 23.8207 9.4126 23.6998 9.40969H23.5898V9.24958H23.6082C23.8043 9.24958 23.9955 9.26542 24.1895 9.26542C24.3585 9.26542 24.5287 9.24958 24.7003 9.24958H24.7184V9.40967H24.6384C24.4671 9.41459 24.2911 9.42954 24.2863 9.91937V11.8093C24.2863 11.9545 24.2906 12.0996 24.3108 12.2254L24.3148 12.2467H24.2932V12.2468ZM24.1355 12.2102H24.2728C24.2541 12.0855 24.2509 11.9473 24.2509 11.8093V9.91937C24.2509 9.4209 24.4597 9.3737 24.6384 9.3737H24.6822V9.28555C24.5187 9.2867 24.3546 9.30168 24.1896 9.30168C23.9996 9.30168 23.8148 9.2867 23.6268 9.28555L23.6265 9.3737H23.6999C23.8275 9.3737 24.0794 9.43069 24.0794 9.7829L24.0736 11.3523L24.0653 11.361L24.0512 11.3739L22.2048 9.28555C22.0816 9.28555 21.9613 9.30168 21.8349 9.30168C21.6826 9.30168 21.5268 9.2867 21.3762 9.28555L21.3754 9.37367H21.4122C21.6071 9.37367 21.8072 9.52255 21.8072 9.7656V11.5147C21.8072 11.8467 21.7148 12.0592 21.4163 12.0604L21.3762 12.0592V12.1488C21.5562 12.1471 21.741 12.1321 21.9227 12.1321C22.096 12.1321 22.2685 12.1471 22.44 12.1488V12.0604H22.3877C22.0609 12.0592 21.9797 11.917 21.9794 11.5559V9.79782L24.1355 12.2102ZM24.0528 11.3477L24.0661 11.3356L24.0528 11.3477ZM24.0433 11.3397V11.3382L24.0399 11.3353L24.0433 11.3397ZM25.3222 9.47475C25.0104 9.47475 24.9986 9.54965 24.9364 9.85256H24.8118C24.8282 9.73651 24.8489 9.62046 24.8616 9.49951C24.8782 9.38317 24.8863 9.26738 24.8863 9.14704H24.9862C25.0196 9.27173 25.1233 9.26741 25.2358 9.26741H27.3776C27.4898 9.26741 27.5935 9.26338 27.6021 9.13843L27.7011 9.15513C27.685 9.26741 27.6683 9.37946 27.6556 9.49174C27.6482 9.60379 27.6482 9.71607 27.6482 9.8278L27.5232 9.87416C27.5146 9.72067 27.4938 9.47475 27.216 9.47475H26.5351V11.6846C26.5351 12.0048 26.6805 12.0414 26.8792 12.0414H26.9583V12.1667C26.7965 12.1667 26.5055 12.1503 26.2818 12.1503C26.0328 12.1503 25.7417 12.1667 25.5796 12.1667V12.0414H25.6587C25.8876 12.0414 26.0034 12.021 26.0034 11.6933V9.47475H25.3222Z" fill="#211E1F"/>
<path d="M26.9599 12.1844C26.7963 12.1844 26.5058 12.1677 26.2827 12.1677C26.0339 12.1677 25.7435 12.1844 25.5805 12.1844H25.5632V12.0237H25.6597C25.8885 12.0182 25.9806 12.0153 25.9858 11.6933V9.493H25.3231V9.4564H26.0219V11.6933C26.0219 12.0265 25.8877 12.0602 25.6597 12.0605H25.5986V12.148C25.7625 12.1472 26.0417 12.1322 26.2827 12.1322C26.4992 12.1322 26.7767 12.1472 26.9409 12.148V12.0605H26.8801C26.6794 12.0602 26.5179 12.011 26.5179 11.6847V9.4564H27.2169C27.4956 9.45755 27.5319 9.69455 27.5411 9.84861L27.6307 9.8155C27.6307 9.70722 27.6312 9.59866 27.6387 9.48923C27.6508 9.38239 27.6661 9.27642 27.6816 9.17045L27.6183 9.15979C27.599 9.28074 27.4824 9.28679 27.3779 9.28563H25.2151C25.1175 9.28563 25.0107 9.28103 24.9736 9.165H24.9051C24.9046 9.27773 24.8965 9.3903 24.8806 9.5019C24.8685 9.61596 24.8495 9.72568 24.8339 9.83539H24.9229C24.9776 9.54596 25.0133 9.45208 25.3231 9.45643V9.493C25.0162 9.49847 25.0225 9.55031 24.9548 9.85728L24.9517 9.87139H24.7919L24.7942 9.84979C24.8109 9.73345 24.832 9.61766 24.8443 9.49672C24.8616 9.38153 24.8696 9.26634 24.8696 9.14712V9.12898H25.0012L25.0041 9.14194C25.0326 9.24676 25.1095 9.24733 25.2151 9.24906H27.3779C27.4936 9.24733 27.5777 9.24561 27.5849 9.13701L27.5866 9.11743L27.6053 9.12146L27.7225 9.13992L27.7199 9.15806C27.7032 9.26922 27.6868 9.38153 27.6747 9.49297C27.6663 9.60355 27.6663 9.71586 27.6663 9.82788V9.84084L27.6548 9.84545L27.5077 9.89898L27.5066 9.87479C27.4956 9.71871 27.4792 9.49294 27.2169 9.49294H26.5542V11.6847C26.5579 11.998 26.6823 12.0196 26.88 12.0236H26.9774V12.1843L26.9599 12.1844ZM27.8348 12.0415H27.8932C28.0424 12.0415 28.2004 12.0214 28.2004 11.8051V9.62918C28.2004 9.4126 28.0424 9.39218 27.8932 9.39218H27.8348V9.26749C28.0876 9.26749 28.52 9.28391 28.868 9.28391C29.2176 9.28391 29.6486 9.26749 29.9307 9.26749C29.9238 9.44574 29.9276 9.72047 29.9399 9.90278L29.8147 9.93616C29.7948 9.66636 29.745 9.45067 29.3088 9.45067H28.7322V10.5383H29.2257C29.4747 10.5383 29.5291 10.3975 29.5536 10.1726H29.6779C29.6699 10.3353 29.6656 10.4972 29.6656 10.659C29.6656 10.8171 29.6699 10.9746 29.6779 11.1324L29.5536 11.1572C29.5291 10.9081 29.5165 10.7462 29.2297 10.7462H28.7322V11.7135C28.7322 11.9839 28.972 11.9839 29.2381 11.9839C29.7364 11.9839 29.9561 11.9502 30.0807 11.4774L30.1971 11.5059C30.1426 11.7265 30.0931 11.9462 30.0563 12.1668C29.7903 12.1668 29.3126 12.1504 28.9395 12.1504C28.5652 12.1504 28.0715 12.1668 27.8348 12.1668V12.0415Z" fill="#211E1F"/>
<path d="M30.0559 12.1844C29.7893 12.1844 29.312 12.1674 28.9392 12.1674C28.5652 12.1674 28.0717 12.1844 27.8347 12.1844H27.8172V12.0238H27.8929C28.0435 12.0215 28.1799 12.0082 28.182 11.8052V9.62927C28.18 9.42654 28.0435 9.41301 27.8929 9.40984H27.8172V9.24976H27.8347C28.0881 9.24976 28.52 9.26559 28.868 9.26559C29.2172 9.26559 29.648 9.24976 29.9307 9.24976H29.9494L29.9485 9.26819C29.9456 9.33068 29.9445 9.40437 29.9445 9.48272C29.9445 9.62639 29.9485 9.78333 29.9569 9.90172L29.9575 9.91669L29.9436 9.92075L29.7977 9.95876L29.7968 9.93745C29.7724 9.66792 29.7364 9.47238 29.3089 9.46835H28.7495L28.7489 10.5197H29.2257C29.4647 10.5174 29.5075 10.395 29.5357 10.1713L29.5372 10.1549H29.6964L29.6961 10.1736C29.6881 10.3354 29.6829 10.4972 29.6829 10.6591C29.6829 10.8163 29.6881 10.9738 29.6961 11.1319L29.6964 11.1466L29.6814 11.1501L29.5372 11.1789L29.5357 11.1593C29.5072 10.9059 29.5052 10.7671 29.2294 10.7639L28.7494 10.7636V11.7136C28.7498 11.9659 28.9674 11.9644 29.238 11.9659C29.7378 11.963 29.9382 11.9388 30.0635 11.4723L30.0675 11.4556L30.0851 11.4588L30.2181 11.493L30.214 11.5103C30.1605 11.7303 30.1107 11.9498 30.0735 12.1697L30.0701 12.1844H30.0559ZM30.0407 12.1482C30.0767 11.9388 30.1241 11.7286 30.1751 11.5195L30.0931 11.4988C29.9687 11.9636 29.728 12.005 29.238 12.0019C28.9766 12.0019 28.7146 12.0019 28.7134 11.7136V10.7282H29.2294C29.5192 10.725 29.5489 10.9001 29.5694 11.1365L29.6592 11.1178C29.6512 10.965 29.6473 10.812 29.6474 10.659C29.6474 10.5027 29.6511 10.3472 29.6592 10.1908H29.5694C29.5464 10.4071 29.4787 10.5591 29.2256 10.5562H28.7134V9.43201H29.3089C29.7407 9.4291 29.8124 9.65202 29.8308 9.91321L29.9204 9.88902C29.9132 9.77181 29.9082 9.6215 29.9082 9.48269C29.9082 9.41157 29.91 9.34447 29.9123 9.28572C29.6302 9.28688 29.2098 9.30185 28.8681 9.30185C28.5269 9.30185 28.1069 9.28688 27.8526 9.28572V9.37384H27.8929C28.0409 9.37384 28.2177 9.39976 28.2182 9.62927V11.8052C28.2177 12.0341 28.0409 12.0595 27.8929 12.0606H27.8526V12.1482C28.0948 12.1478 28.5744 12.1323 28.9391 12.1323C29.3054 12.1323 29.7729 12.1478 30.0407 12.1482ZM30.7574 9.7076C30.7574 9.40465 30.5915 9.39227 30.4623 9.39227H30.3877V9.26729C30.5207 9.26729 30.7778 9.284 31.0312 9.284C31.2802 9.284 31.4797 9.26729 31.6994 9.26729C32.2222 9.26729 32.6878 9.40869 32.6878 9.99902C32.6878 10.3719 32.4387 10.6006 32.1108 10.7299L32.8205 11.7925C32.9368 11.9682 33.0194 12.0174 33.2232 12.0416V12.1669C33.0862 12.1669 32.9532 12.1504 32.8164 12.1504C32.6877 12.1504 32.5544 12.1669 32.4263 12.1669C32.1067 11.7473 31.8321 11.2986 31.5623 10.8206H31.2891V11.7098C31.2891 12.0301 31.438 12.0416 31.6288 12.0416H31.7037V12.1669C31.4664 12.1669 31.2267 12.1505 30.9897 12.1505C30.7902 12.1505 30.595 12.1669 30.3877 12.1669V12.0416H30.4623C30.6165 12.0416 30.7574 11.9719 30.7574 11.8178V9.7076ZM31.2891 10.6711H31.4918C31.9072 10.6711 32.1309 10.5134 32.1309 10.0232C32.1309 9.65404 31.8945 9.41704 31.5246 9.41704C31.3999 9.41704 31.347 9.43 31.289 9.43374V10.6711H31.2891Z" fill="#211E1F"/>
<path d="M33.2232 12.1842C33.0841 12.1842 32.952 12.1675 32.8155 12.1675C32.6888 12.1675 32.5564 12.1842 32.4116 12.1773C32.0932 11.7595 31.8202 11.3134 31.5519 10.8388H31.3066V11.7091C31.3109 12.0216 31.4365 12.019 31.6285 12.0236H31.7215V12.1843H31.703C31.4658 12.1843 31.2249 12.1676 30.9891 12.1676C30.7907 12.1676 30.5961 12.1843 30.3876 12.1843H30.3694V12.0236H30.4622C30.6119 12.0227 30.738 11.9576 30.7386 11.8177V9.70747C30.7354 9.41259 30.5912 9.41429 30.4622 9.41H30.3694V9.24902H30.3876C30.5221 9.24902 30.7783 9.26541 31.0311 9.26541C31.2789 9.26541 31.4785 9.24902 31.6996 9.24902C32.2227 9.25018 32.7047 9.39474 32.7061 9.99774C32.7061 10.373 32.4582 10.6071 32.1378 10.7378L32.8354 11.7825C32.9514 11.9547 33.0237 11.9977 33.2258 12.0236L33.241 12.0259V12.1843H33.2232V12.1842ZM31.2885 10.8025H31.5724L31.5773 10.8117C31.8479 11.2889 32.1205 11.737 32.4263 12.1488C32.553 12.1488 32.6862 12.1318 32.8155 12.1318C32.9482 12.1318 33.076 12.1462 33.2053 12.1482V12.0572C33.0104 12.033 32.9192 11.9748 32.8057 11.8024L32.0834 10.721L32.1038 10.7127C32.4286 10.5848 32.669 10.3628 32.6693 9.99763C32.669 9.4214 32.2216 9.28781 31.6996 9.28551C31.4805 9.28551 31.2813 9.30192 31.0311 9.30192C30.7873 9.30192 30.5411 9.28666 30.4052 9.28551V9.37363H30.4622C30.5912 9.37394 30.7748 9.39523 30.7748 9.70741V11.8176C30.7748 11.9844 30.6185 12.0604 30.4622 12.0607H30.4052V12.1482C30.605 12.1476 30.7941 12.1318 30.9891 12.1318C31.2213 12.1318 31.4554 12.1476 31.6852 12.1482V12.0607H31.6285C31.439 12.0603 31.2703 12.0368 31.2703 11.7091V10.8025H31.2885H31.2885ZM31.2885 10.6885H31.2703V9.41682L31.2862 9.41538C31.3429 9.41109 31.3991 9.39926 31.5246 9.39926C31.9029 9.39926 32.1487 9.64518 32.1493 10.0238C32.1482 10.5197 31.9104 10.6882 31.4917 10.6885H31.2885V10.6885ZM31.4917 10.6528C31.9028 10.6493 32.1096 10.5065 32.1139 10.0239C32.1116 9.66102 31.8862 9.43583 31.5245 9.43439C31.4123 9.43439 31.3596 9.44476 31.3066 9.44939V10.6528H31.4917ZM36.042 11.3479L36.0495 11.3399V9.78254C36.0495 9.44159 35.8132 9.39206 35.6888 9.39206H35.5978V9.26734C35.7927 9.26734 35.9834 9.28375 36.1788 9.28375C36.3493 9.28375 36.5189 9.26734 36.6901 9.26734V9.39206H36.6277C36.4532 9.39206 36.258 9.42514 36.258 9.91933V11.8096C36.258 11.9547 36.2621 12.0998 36.2825 12.2286H36.125L33.9871 9.84448V11.5559C33.9871 11.9173 34.0576 12.0414 34.3771 12.0414H34.4477V12.1667C34.2695 12.1667 34.0907 12.1503 33.9125 12.1503C33.725 12.1503 33.5342 12.1667 33.3476 12.1667V12.0414H33.4052C33.692 12.0414 33.7792 11.8467 33.7792 11.5147V9.76529C33.7792 9.5329 33.5883 9.39209 33.4017 9.39209H33.3476V9.2674C33.5048 9.2674 33.6675 9.28378 33.8249 9.28378C33.9488 9.28378 34.0697 9.2674 34.1943 9.2674L36.042 11.3479Z" fill="#211E1F"/>
<path d="M36.2824 12.2466L36.1114 12.2409L34.0043 9.89163V11.5558C34.0092 11.9172 34.0639 12.0197 34.3771 12.0238H34.465V12.1844H34.4468C34.2672 12.1844 34.0892 12.1674 33.9113 12.1674C33.7259 12.1674 33.5342 12.1844 33.3473 12.1844H33.3286V12.0238H33.4049C33.679 12.0226 33.7576 11.8461 33.7602 11.5138V9.7655C33.7599 9.54431 33.5788 9.41015 33.4015 9.40983H33.3286V9.24917H33.3473C33.5057 9.24917 33.6681 9.26556 33.8247 9.26556C33.9467 9.26556 34.0671 9.24917 34.2064 9.2549L36.0314 11.3105V9.78247C36.0303 9.45245 35.8092 9.41156 35.6885 9.40986H35.5788V9.24917H35.597C35.7933 9.24917 35.9845 9.26556 36.1785 9.26556C36.3478 9.26556 36.518 9.24917 36.689 9.24917H36.7071V9.40986H36.6273C36.4561 9.41447 36.2796 9.4297 36.2752 9.91957V11.8095C36.2752 11.9546 36.279 12.0986 36.3 12.2265L36.3023 12.2466H36.2824ZM36.1247 12.2103H36.2612C36.243 12.0856 36.239 11.9474 36.239 11.8095V9.91954C36.2392 9.42103 36.4494 9.37499 36.6273 9.37355H36.6708V9.28572C36.5079 9.28687 36.3435 9.30184 36.1785 9.30184C35.9879 9.30184 35.8028 9.28687 35.6148 9.28572V9.37355H35.6885C35.8163 9.37499 36.068 9.43085 36.068 9.78247L36.0622 11.3525L36.0542 11.3611L36.0415 11.3744L34.1938 9.28575C34.0705 9.28575 33.9502 9.30187 33.8247 9.30187C33.6709 9.30187 33.5158 9.2869 33.3646 9.28575V9.37358H33.4014C33.5964 9.37502 33.7965 9.52217 33.7965 9.7655V11.5137C33.7965 11.8472 33.7026 12.0594 33.4049 12.0606L33.3646 12.0603V12.1481C33.544 12.1473 33.7291 12.1323 33.9113 12.1323C34.0855 12.1323 34.258 12.1473 34.4296 12.1481V12.0606H34.3772C34.0501 12.0603 33.9684 11.9172 33.9678 11.5558V9.79859L36.1247 12.2103ZM36.0417 11.3479L36.0544 11.3361L36.0417 11.3479ZM36.0314 11.3401V11.3386L36.0282 11.3355L36.0314 11.3401ZM37.3575 11.5728C37.3155 11.7136 37.2654 11.8224 37.2654 11.8965C37.2654 12.0214 37.4402 12.0416 37.5767 12.0416H37.623V12.1669C37.4566 12.1579 37.287 12.1504 37.1198 12.1504C36.9704 12.1504 36.8218 12.158 36.6721 12.1669V12.0416H36.6971C36.8589 12.0416 36.9963 11.9462 37.0576 11.7715L37.7226 9.86566C37.7762 9.71188 37.8516 9.50426 37.8767 9.35022C38.0089 9.30501 38.1752 9.22208 38.2539 9.17197C38.2668 9.16768 38.274 9.16333 38.287 9.16333C38.2994 9.16333 38.3074 9.16333 38.3166 9.17629C38.3287 9.20912 38.3408 9.24684 38.3541 9.27996L39.1178 11.4524C39.1676 11.5975 39.2168 11.751 39.2707 11.876C39.3208 11.9923 39.4083 12.0416 39.5456 12.0416H39.5701V12.1669C39.3833 12.1579 39.1962 12.1505 38.9975 12.1505C38.794 12.1505 38.5858 12.158 38.3742 12.1669V12.0416H38.4203C38.5153 12.0416 38.6777 12.0255 38.6777 11.9215C38.6777 11.8677 38.6402 11.7556 38.5939 11.6223L38.4324 11.1405H37.4901L37.3575 11.5728ZM37.9633 9.73265H37.9549L37.5689 10.9081H38.3448L37.9633 9.73265Z" fill="#211E1F"/>
<path d="M39.568 12.1843C39.3811 12.1759 39.1943 12.1673 38.9965 12.1673C38.7929 12.1673 38.5862 12.1759 38.3737 12.1843L38.355 12.1854V12.023H38.4189C38.5151 12.023 38.6579 12.0011 38.6579 11.9214C38.659 11.8741 38.6216 11.7601 38.5758 11.628L38.4178 11.1583H37.502L37.373 11.5778C37.3309 11.7195 37.2812 11.8292 37.2814 11.8969C37.2828 11.9983 37.438 12.023 37.5756 12.023H37.6396V12.1854L37.6209 12.1843C37.4548 12.1759 37.2852 12.1673 37.1196 12.1673C36.9708 12.1673 36.8211 12.1759 36.6723 12.1843L36.653 12.1854V12.023H36.6959C36.8504 12.0224 36.9795 11.9346 37.0393 11.7656L37.7041 9.85953C37.7585 9.70547 37.8334 9.49842 37.8694 9.33284C37.9995 9.28878 38.1662 9.20527 38.2462 9.15458C38.2577 9.15084 38.2693 9.14508 38.2863 9.14508C38.2963 9.14479 38.3188 9.14738 38.332 9.1693C38.3439 9.20354 38.3568 9.24043 38.3694 9.27412L39.1341 11.4463C39.1831 11.592 39.2326 11.7455 39.2868 11.8682C39.3348 11.979 39.4111 12.0225 39.5447 12.0231H39.587V12.1855L39.568 12.1843ZM38.3913 12.1471C38.5969 12.1399 38.7981 12.1319 38.9965 12.1319C39.1893 12.1319 39.3699 12.1399 39.5503 12.1471V12.0604H39.5446C39.4024 12.0613 39.3042 12.0055 39.2532 11.8831C39.1991 11.7569 39.1485 11.6029 39.0998 11.4574L38.3354 9.28558C38.3228 9.25246 38.3107 9.21474 38.2997 9.18537C38.2963 9.18134 38.2971 9.18133 38.2937 9.18133H38.2862C38.2775 9.18133 38.2727 9.18393 38.262 9.18681C38.182 9.23893 38.0153 9.32042 37.8923 9.35296C37.8667 9.5102 37.7921 9.71753 37.738 9.87131L37.0735 11.7777C37.0102 11.9579 36.8648 12.0607 36.6958 12.0604H36.6892V12.1471C36.8314 12.1399 36.9754 12.1319 37.1196 12.1319C37.28 12.1319 37.4441 12.1399 37.6024 12.1471V12.0604H37.5756C37.4406 12.0587 37.2518 12.0434 37.2466 11.8969C37.2469 11.8139 37.2978 11.7077 37.3384 11.5675L37.3565 11.5729L37.3384 11.5668L37.4751 11.1228H38.4431L38.6098 11.6164C38.6564 11.7497 38.6941 11.8603 38.6941 11.9214C38.6884 12.0489 38.5131 12.0579 38.4189 12.0605H38.3912V12.1471H38.3913ZM37.5426 10.9258L37.9401 9.71434H37.9626V9.73248L37.958 9.73334L37.9626 9.73248V9.71434H37.975L38.3691 10.9258H37.5426ZM37.5923 10.8898H38.319L37.9577 9.77683L37.5923 10.8898ZM37.9444 9.73769L37.9539 9.73452L37.9444 9.73769ZM39.7517 9.47475C39.4402 9.47475 39.4278 9.54965 39.3652 9.85256H39.2406C39.257 9.73651 39.278 9.62046 39.291 9.49951C39.3077 9.38317 39.3152 9.26738 39.3152 9.14704H39.4154C39.4485 9.27173 39.5527 9.26741 39.6641 9.26741H41.807C41.9185 9.26741 42.0221 9.26338 42.0307 9.13843L42.13 9.15513C42.1142 9.26741 42.0978 9.37946 42.0851 9.49174C42.0762 9.60379 42.0762 9.71607 42.0762 9.8278L41.9518 9.87416C41.944 9.72067 41.9233 9.47475 41.6449 9.47475H40.964V11.6846C40.964 12.0049 41.1097 12.0415 41.3084 12.0415H41.3872V12.1667C41.2254 12.1667 40.9352 12.1503 40.7106 12.1503C40.4619 12.1503 40.1708 12.1667 40.0091 12.1667V12.0415H40.0877C40.3165 12.0415 40.4328 12.021 40.4328 11.6933V9.47475H39.7517Z" fill="#211E1F"/>
<path d="M41.3873 12.1843C41.2243 12.1843 40.9336 12.1676 40.7107 12.1676C40.4625 12.1676 40.1717 12.1843 40.0091 12.1843H39.9907V12.0237H40.0877C40.3165 12.0182 40.4084 12.0153 40.4142 11.6933L40.4136 9.49297H39.7517V9.45637H40.4501V11.6933C40.4501 12.0265 40.3157 12.0593 40.0877 12.0602H40.0267V12.1489C40.191 12.1471 40.4697 12.1322 40.7107 12.1322C40.9275 12.1322 41.2051 12.1472 41.3691 12.1489V12.0602H41.3078C41.1083 12.0593 40.9465 12.0112 40.9459 11.6847V9.45637H41.6449C41.9236 9.45752 41.9602 9.69452 41.968 9.84859L42.0587 9.81547C42.0587 9.70719 42.059 9.59863 42.067 9.48978C42.0785 9.38294 42.094 9.27639 42.1094 9.17039L42.0466 9.15974C42.0276 9.28068 41.9104 9.28733 41.8071 9.28558H39.6431C39.5453 9.28673 39.4393 9.28097 39.4016 9.16434H39.3337C39.3325 9.27953 39.3247 9.39129 39.3083 9.50187C39.2974 9.6162 39.2769 9.7262 39.2614 9.83534H39.3504C39.4053 9.5459 39.4413 9.45202 39.7517 9.45637V9.49294C39.4439 9.49816 39.4508 9.55025 39.3828 9.85723L39.3797 9.87134H39.2196L39.2222 9.85057C39.2395 9.7334 39.2602 9.61761 39.2723 9.49752C39.2893 9.38147 39.2973 9.26628 39.2973 9.14706V9.12892H39.4286L39.4321 9.14188C39.4611 9.2467 39.5368 9.24728 39.6431 9.24901L39.6641 9.24958H41.807C41.9216 9.24731 42.0053 9.24555 42.0125 9.1373L42.0137 9.11743L42.0333 9.12149L42.151 9.13992L42.1479 9.15806C42.1309 9.26922 42.1151 9.38153 42.1024 9.49297C42.094 9.60355 42.094 9.71615 42.094 9.82788V9.84084L42.0823 9.84545L41.9351 9.89901L41.9343 9.87479C41.9236 9.71874 41.9072 9.49294 41.6449 9.49294H40.9819V11.6847C40.9862 11.998 41.1103 12.0196 41.3078 12.0236H41.4051V12.1843L41.3873 12.1843ZM42.2834 12.0415H42.3416C42.4915 12.0415 42.6484 12.0213 42.6484 11.8051V9.62915C42.6484 9.41257 42.4915 9.39216 42.3416 9.39216H42.2834V9.26746C42.4455 9.26746 42.6943 9.28388 42.8972 9.28388C43.1056 9.28388 43.3547 9.26746 43.5499 9.26746V9.39216H43.4917C43.3423 9.39216 43.184 9.4126 43.184 9.62915V11.8051C43.184 12.0213 43.3423 12.0415 43.4917 12.0415H43.5499V12.1668C43.3504 12.1668 43.101 12.1504 42.8941 12.1504C42.6902 12.1504 42.4455 12.1668 42.2834 12.1668V12.0415Z" fill="#211E1F"/>
<path d="M43.5496 12.1844C43.349 12.1844 43.1005 12.1674 42.8935 12.1674C42.6905 12.1674 42.4452 12.1844 42.2831 12.1844H42.265V12.0237H42.3413C42.4913 12.0214 42.6289 12.0084 42.6295 11.8051V9.62921C42.6289 9.42648 42.4913 9.41263 42.3413 9.40978H42.265V9.2497H42.2831C42.4452 9.2497 42.6946 9.26554 42.8969 9.26554C43.104 9.26554 43.353 9.2497 43.5496 9.2497H43.5672V9.40978H43.4915C43.3397 9.41266 43.2036 9.42648 43.2015 9.62921V11.8051C43.2036 12.0084 43.3398 12.0214 43.4915 12.0237H43.5672V12.1844H43.5496ZM43.5309 12.1481V12.0602H43.4915C43.3426 12.0602 43.1664 12.0341 43.1664 11.8051V9.62921C43.1664 9.3997 43.3426 9.37378 43.4915 9.37378H43.5309V9.28567C43.3392 9.28682 43.0994 9.30179 42.8969 9.30179C42.7003 9.30179 42.4622 9.28682 42.3013 9.28567V9.37378H42.3413C42.489 9.37378 42.6658 9.3997 42.6664 9.62921V11.8051C42.6658 12.034 42.489 12.0602 42.3413 12.0602H42.3013V12.1481C42.4614 12.1463 42.6963 12.1322 42.8935 12.1322C43.0948 12.1322 43.3352 12.1472 43.5309 12.1481H43.5309ZM45.2052 9.20532C46.0902 9.20532 46.7956 9.75419 46.7956 10.6385C46.7956 11.5941 46.1106 12.229 45.2268 12.229C44.3458 12.229 43.6739 11.6309 43.6739 10.7379C43.6739 9.87427 44.3418 9.20532 45.2052 9.20532ZM45.268 12.0461C46.0735 12.0461 46.2137 11.3354 46.2137 10.7298C46.2137 10.1228 45.8867 9.38789 45.1972 9.38789C44.4705 9.38789 44.2549 10.0358 44.2549 10.5919C44.2549 11.3354 44.5952 12.0461 45.268 12.0461Z" fill="#211E1F"/>
<path d="M43.6554 10.7377C43.6572 9.86403 44.3332 9.18816 45.2052 9.18701V9.22269C44.3519 9.22269 43.6914 9.88303 43.6906 10.7377C43.6926 11.6206 44.3551 12.2098 45.2269 12.2101C46.102 12.2098 46.7772 11.5837 46.7786 10.6375C46.7778 9.76439 46.083 9.22384 45.2053 9.22269V9.18701C46.0972 9.18759 46.812 9.74193 46.8138 10.6375C46.8129 11.603 46.119 12.2447 45.2269 12.2464C44.3389 12.2446 43.6572 11.6405 43.6555 10.7377H43.6554V10.7377ZM44.2371 10.5917C44.2382 10.0331 44.4564 9.36901 45.1975 9.36901C45.9023 9.37076 46.2313 10.1195 46.2325 10.7297C46.2313 11.3353 46.0889 12.0633 45.2683 12.0633V12.0281C46.0578 12.027 46.1945 11.3353 46.1965 10.7297C46.1965 10.1275 45.8723 9.40676 45.1975 9.40587C44.4852 9.40673 44.2744 10.0385 44.2731 10.5917C44.2736 11.3315 44.6108 12.0264 45.2683 12.0281V12.0633C44.5791 12.0624 44.2382 11.3396 44.2371 10.5917ZM49.5936 11.3479L49.602 11.3399V9.78253C49.602 9.44158 49.3648 9.39205 49.2401 9.39205H49.1502V9.26733C49.3449 9.26733 49.5358 9.28374 49.7304 9.28374C49.9011 9.28374 50.0712 9.26733 50.2417 9.26733V9.39205H50.1789C50.005 9.39205 49.8095 9.42513 49.8095 9.91932V11.8095C49.8095 11.9547 49.8136 12.0998 49.8346 12.2286H49.6771L47.5385 9.84447V11.5559C47.5385 11.9173 47.6088 12.0414 47.9284 12.0414H47.9995V12.1667C47.8207 12.1667 47.6425 12.1502 47.464 12.1502C47.2771 12.1502 47.0857 12.1667 46.8988 12.1667V12.0414H46.9573C47.2443 12.0414 47.3304 11.8467 47.3304 11.5147V9.76528C47.3304 9.53289 47.1403 9.39207 46.9529 9.39207H46.8988V9.26738C47.0566 9.26738 47.2187 9.28377 47.3762 9.28377C47.5008 9.28377 47.6209 9.26738 47.7459 9.26738L49.5936 11.3479Z" fill="#211E1F"/>
<path d="M49.8342 12.2466L49.6624 12.2405L47.5558 9.8916V11.5561C47.5604 11.9172 47.6154 12.0194 47.9272 12.0232H48.017V12.1844H47.9988C47.8189 12.1844 47.6407 12.1677 47.4633 12.1677C47.277 12.1677 47.0865 12.1844 46.8979 12.1844H46.8806V12.0232H46.9566C47.2304 12.0223 47.309 11.8461 47.3125 11.5149V9.7655C47.3119 9.54434 47.1308 9.41015 46.9523 9.40986H46.8806V9.24975H46.8979C47.0571 9.24975 47.2189 9.26562 47.3755 9.26562C47.4988 9.26562 47.6185 9.24975 47.759 9.25582L49.5832 11.3105V9.78309C49.582 9.45253 49.3609 9.41277 49.2394 9.40989H49.1303V9.24981H49.149C49.3445 9.24981 49.5359 9.26564 49.7291 9.26564C49.8995 9.26564 50.0688 9.24981 50.241 9.24981H50.2588V9.40989H50.1782C50.0074 9.41478 49.8307 9.43033 49.8272 9.91959V11.8095C49.8272 11.9547 49.8304 12.0995 49.8506 12.2265L49.854 12.2466H49.8342V12.2466ZM49.6765 12.2103H49.8124C49.7943 12.0856 49.7911 11.9474 49.7911 11.8095V9.91953C49.7911 9.4202 50.0004 9.37499 50.1783 9.37355H50.2232V9.28572C50.0594 9.28687 49.8953 9.30184 49.7292 9.30184C49.5404 9.30184 49.3546 9.28687 49.1667 9.28572V9.37355H49.2395C49.3682 9.37499 49.6186 9.43174 49.6186 9.78304L49.6141 11.3525L49.6063 11.3611L49.5931 11.3743L47.7453 9.28574C47.623 9.28574 47.5017 9.30187 47.3756 9.30187C47.2227 9.30187 47.067 9.2869 46.9158 9.28574V9.37357H46.9524C47.1473 9.37501 47.348 9.52217 47.348 9.7655V11.5149C47.348 11.8469 47.2553 12.0594 46.9567 12.0606L46.9158 12.0603V12.1481C47.0961 12.1473 47.2809 12.1323 47.4634 12.1323C47.6365 12.1323 47.8083 12.1473 47.9808 12.1481V12.0606H47.9272C47.6014 12.0603 47.5199 11.9172 47.5199 11.556V9.79801L49.6765 12.2103ZM49.593 11.3478L49.6062 11.336L49.593 11.3478ZM49.5832 11.3401V11.3386L49.5797 11.3355L49.5832 11.3401ZM50.9082 11.5728C50.8676 11.7136 50.8172 11.8224 50.8172 11.8964C50.8172 12.0214 50.992 12.0416 51.1282 12.0416H51.1745V12.1668C51.0084 12.1579 50.838 12.1504 50.6719 12.1504C50.5218 12.1504 50.373 12.1579 50.2242 12.1668V12.0416H50.2478C50.4104 12.0416 50.548 11.9462 50.6094 11.7714L51.2744 9.86565C51.328 9.71188 51.4031 9.50425 51.4274 9.35022C51.5603 9.30501 51.7262 9.22208 51.8059 9.17197C51.8177 9.16768 51.8261 9.16333 51.8387 9.16333C51.8511 9.16333 51.8589 9.16333 51.8672 9.17629C51.8799 9.20912 51.8929 9.24684 51.9052 9.27996L52.6688 11.4524C52.7186 11.5975 52.7681 11.751 52.8228 11.876C52.8726 11.9923 52.9601 12.0416 53.0966 12.0416H53.1219V12.1668C52.9348 12.1579 52.748 12.1504 52.5484 12.1504C52.3454 12.1504 52.1376 12.1579 51.9257 12.1668V12.0416H51.9718C52.0665 12.0416 52.2294 12.0254 52.2294 11.9215C52.2294 11.8676 52.1917 11.7556 52.1454 11.6223L51.9842 11.1405H51.0416L50.9082 11.5728ZM51.5151 9.73264H51.5068L51.1201 10.9081H51.8971L51.5151 9.73264Z" fill="#211E1F"/>
<path d="M53.1206 12.1844C52.9337 12.1769 52.7472 12.1677 52.5488 12.1677C52.3464 12.1677 52.1386 12.1769 51.9267 12.1844L51.9083 12.1855V12.0237H51.9713C52.068 12.0237 52.2111 12.0012 52.2114 11.9214C52.2122 11.8742 52.1748 11.761 52.1285 11.628L51.9707 11.1583H51.0543L50.9259 11.5779C50.8845 11.7201 50.8349 11.8293 50.8358 11.8964C50.8358 11.9983 50.9912 12.0237 51.1286 12.0237H51.1919V12.1855L51.1735 12.1844C51.0074 12.1769 50.8375 12.1677 50.6723 12.1677C50.5234 12.1677 50.3743 12.1769 50.2246 12.1844L50.2064 12.1855V12.0237H50.2482C50.403 12.0231 50.5326 11.9341 50.5931 11.7657L51.2576 9.85959C51.3105 9.70553 51.3854 9.49848 51.4222 9.33347C51.5527 9.28826 51.7193 9.20533 51.8 9.15462C51.8109 9.15087 51.8221 9.14598 51.8391 9.14598C51.8501 9.14482 51.8713 9.14742 51.8846 9.17017C51.897 9.20274 51.9091 9.24043 51.9229 9.27412L52.6864 11.4463C52.7359 11.592 52.7858 11.7455 52.8396 11.869C52.8882 11.979 52.9639 12.0225 53.0964 12.0237H53.1396V12.1855L53.1206 12.1844ZM51.944 12.1478C52.1492 12.14 52.3513 12.1319 52.5488 12.1319C52.742 12.1319 52.9231 12.14 53.1039 12.1472L53.1033 12.0605H53.0964C52.9559 12.0608 52.8578 12.0055 52.8062 11.8831C52.7515 11.757 52.702 11.6029 52.6525 11.458L51.8883 9.28564C51.8759 9.25253 51.8633 9.2148 51.8532 9.18658C51.8498 9.1814 51.8501 9.1814 51.8469 9.1814H51.8391C51.8305 9.1814 51.8258 9.18428 51.8157 9.18716C51.7349 9.23813 51.5684 9.32103 51.4455 9.35303C51.4199 9.51026 51.3445 9.71731 51.291 9.87137L50.6262 11.7777C50.5631 11.958 50.418 12.0608 50.2482 12.0605H50.2421V12.1472C50.3849 12.14 50.5277 12.1319 50.6722 12.1319C50.8332 12.1319 50.997 12.14 51.1568 12.1472V12.0605H51.1286C50.9936 12.0588 50.8041 12.0441 50.7992 11.8964C50.8001 11.814 50.8516 11.7083 50.8916 11.5675L50.9086 11.5729L50.8916 11.5669L51.0284 11.1229H51.9966L52.163 11.6164C52.2088 11.7501 52.2465 11.8604 52.2465 11.9214C52.2404 12.049 52.0663 12.0579 51.9712 12.0605H51.9439V12.1478H51.944ZM51.0958 10.9257L51.4939 9.71443H51.5155V9.73257L51.5112 9.73343L51.5155 9.73257V9.71443H51.5285L51.9209 10.9257H51.0958ZM51.1456 10.8899H51.8717L51.5106 9.77749L51.1456 10.8899ZM51.4983 9.73778L51.5066 9.73461L51.4983 9.73778ZM54.1685 11.7596C54.1685 11.9258 54.2836 11.9753 54.4167 11.9923C54.5868 12.0049 54.7737 12.0049 54.9655 11.9839C55.1393 11.9629 55.2891 11.8633 55.3633 11.7596C55.4295 11.668 55.467 11.5517 55.492 11.4604H55.6123C55.5669 11.6971 55.5087 11.9303 55.4586 12.1668C55.0941 12.1668 54.7279 12.1504 54.3631 12.1504C53.9972 12.1504 53.6324 12.1668 53.2671 12.1668V12.0415H53.3241C53.4744 12.0415 53.6368 12.0213 53.6368 11.7636V9.62919C53.6368 9.41261 53.4744 9.39219 53.3241 9.39219H53.2671V9.2675C53.4865 9.2675 53.7027 9.28391 53.9224 9.28391C54.1348 9.28391 54.3422 9.2675 54.554 9.2675V9.39219H54.4495C54.2923 9.39219 54.1685 9.3968 54.1685 9.61623V11.7596Z" fill="#211E1F"/>
<path d="M55.4603 12.1843C55.0944 12.1843 54.7291 12.1676 54.3649 12.1676C53.9992 12.1676 53.6339 12.1843 53.268 12.1843H53.2504V12.0237H53.3259C53.4764 12.0202 53.6187 12.0098 53.6204 11.7636V9.62836C53.6186 9.4265 53.4773 9.41267 53.3259 9.40977H53.2504V9.24968H53.268C53.4888 9.24968 53.705 9.26552 53.9244 9.26552C54.1351 9.26552 54.3424 9.24968 54.5557 9.24968H54.5728V9.40977H54.4516C54.2906 9.41437 54.1904 9.40689 54.1873 9.61627V11.7596C54.1884 11.9143 54.2898 11.956 54.4193 11.9742C54.4927 11.9793 54.5696 11.9825 54.6497 11.9825C54.7513 11.9825 54.8569 11.9776 54.9641 11.9661C55.1333 11.9463 55.279 11.8486 55.3504 11.7495C55.4143 11.6608 55.4512 11.5468 55.4759 11.4561L55.4797 11.4423H55.636L55.6322 11.4642C55.5853 11.7018 55.5283 11.9339 55.478 12.1703L55.4745 12.1844H55.4603V12.1843ZM55.4454 12.1481C55.4934 11.9229 55.5479 11.7025 55.5925 11.4779H55.5073C55.4814 11.5684 55.4445 11.6798 55.3792 11.7705C55.3017 11.8782 55.148 11.9796 54.968 12.0017C54.8592 12.013 54.7515 12.0187 54.6496 12.0187C54.5693 12.0187 54.4913 12.015 54.4161 12.0098C54.2811 11.9948 54.1501 11.9372 54.1507 11.7596V9.61621C54.1507 9.38555 54.2966 9.37374 54.4515 9.37374H54.5373V9.28562C54.3327 9.28678 54.1311 9.30201 53.9243 9.30201C53.7093 9.30201 53.4991 9.28678 53.2861 9.28562V9.37374H53.3258C53.4741 9.37374 53.6554 9.39966 53.6554 9.62831V11.7636C53.6554 12.0323 53.4749 12.0602 53.3258 12.0602H53.2861V12.148C53.6451 12.1477 54.0041 12.1322 54.3649 12.1322C54.7256 12.1322 55.0861 12.1477 55.4454 12.1481ZM55.5637 9.14941C55.8139 9.14941 56.0007 9.34178 56.0007 9.58828C56.0007 9.83363 55.8139 10.0243 55.5637 10.0243C55.3135 10.0243 55.1263 9.83363 55.1263 9.58828C55.1263 9.34181 55.3135 9.14941 55.5637 9.14941ZM55.5637 9.94277C55.7592 9.94277 55.9095 9.77575 55.9095 9.58828C55.9095 9.39966 55.7615 9.2312 55.5637 9.2312C55.3671 9.2312 55.2167 9.39969 55.2167 9.58828C55.2167 9.77575 55.3671 9.94277 55.5637 9.94277ZM55.346 9.81865V9.79706C55.3998 9.78957 55.4096 9.7913 55.4096 9.75789V9.43421C55.4096 9.38874 55.4047 9.37319 55.348 9.37547V9.3533H55.5717C55.6489 9.3533 55.7194 9.38987 55.7194 9.46935C55.7194 9.53443 55.6762 9.58252 55.616 9.60124L55.6877 9.70142C55.7214 9.74692 55.7591 9.78957 55.7842 9.80451V9.81863H55.699C55.6581 9.81863 55.6224 9.73252 55.5418 9.61705H55.4934V9.76247C55.4934 9.79127 55.5035 9.78954 55.5573 9.79703V9.81863H55.346V9.81865ZM55.4934 9.58828H55.545C55.6014 9.58828 55.6278 9.54537 55.6278 9.47655C55.6278 9.40686 55.587 9.38235 55.5421 9.38235H55.4934V9.58828Z" fill="#211E1F"/>
<path d="M10.7299 14.5136C14.6957 14.5326 18.3155 11.2786 18.3155 7.31988C18.3155 2.99084 14.6957 -0.00143932 10.7299 5.19397e-07H7.31677C3.3034 -0.00143932 0 2.99174 0 7.31988C0 11.2794 3.3034 14.5326 7.31677 14.5136H10.7299Z" fill="#0079BE"/>
<path d="M7.3344 0.599854C3.66709 0.601005 0.695352 3.57428 0.694489 7.24389C0.695352 10.9129 3.66706 13.8859 7.3344 13.887C11.0026 13.8859 13.9749 10.9129 13.9754 7.24389C13.9749 3.57428 11.0026 0.601005 7.3344 0.599854ZM3.12554 7.24389C3.129 5.45071 4.24865 3.9216 5.82752 3.31396V11.1729C4.24865 10.5656 3.12897 9.03733 3.12554 7.24389ZM8.84071 11.1746V3.3137C10.4201 3.91987 11.5415 5.44985 11.5444 7.24389C11.5415 9.03849 10.4201 10.5673 8.84071 11.1746Z" fill="white"/>
<path d="M20.6438 3.12254C20.6438 2.43599 20.2859 2.48121 19.9428 2.47375V2.27534C20.2402 2.29002 20.5451 2.29002 20.8431 2.29002C21.1635 2.29002 21.5985 2.27534 22.1634 2.27534C24.1389 2.27534 25.2148 3.59538 25.2148 4.94708C25.2148 5.703 24.7726 7.6033 22.0715 7.6033C21.6826 7.6033 21.3235 7.5883 20.9651 7.5883C20.6219 7.5883 20.2859 7.59582 19.9427 7.6033V7.40518C20.4002 7.35908 20.6219 7.34384 20.6438 6.82464V3.12254H20.6438ZM21.3918 6.70283C21.3918 7.29057 21.8119 7.35911 22.1855 7.35911C23.8341 7.35911 24.3753 6.11479 24.3753 4.97732C24.3753 3.55043 23.4595 2.52008 21.9872 2.52008C21.674 2.52008 21.53 2.54254 21.3918 2.55063L21.3918 6.70283ZM25.4826 7.40521H25.6271C25.8404 7.40521 25.9933 7.40521 25.9933 7.15263V5.08447C25.9933 4.74902 25.879 4.70234 25.5966 4.55058V4.42819C25.9551 4.32049 26.3829 4.17651 26.4128 4.15347C26.4667 4.12294 26.5121 4.11488 26.5504 4.11488C26.5882 4.11488 26.604 4.16096 26.604 4.22229V7.15263C26.604 7.40521 26.7718 7.40521 26.9855 7.40521H27.115V7.60362C26.8553 7.60362 26.5882 7.58839 26.3141 7.58839C26.0394 7.58839 25.7645 7.59587 25.4826 7.60362V7.40521H25.4826ZM26.2988 2.93965C26.1002 2.93965 25.9251 2.75653 25.9251 2.55809C25.9251 2.36688 26.1082 2.19093 26.2988 2.19093C26.4966 2.19093 26.6728 2.35194 26.6728 2.55809C26.6728 2.76428 26.5044 2.93965 26.2988 2.93965ZM27.8399 5.12997C27.8399 4.84776 27.7555 4.77174 27.3977 4.6266V4.48178C27.7256 4.37494 28.038 4.2756 28.4044 4.11491C28.4272 4.11491 28.4496 4.13046 28.4496 4.19122V4.68765C28.8853 4.37495 29.2593 4.11488 29.7711 4.11488C30.4189 4.11488 30.6478 4.58827 30.6478 5.1835V7.15266C30.6478 7.40521 30.8156 7.40521 31.0295 7.40521H31.1669V7.60362C30.8991 7.60362 30.6322 7.58839 30.3582 7.58839C30.0832 7.58839 29.8082 7.59587 29.5339 7.60362V7.40521H29.6709C29.8851 7.40521 30.0368 7.40521 30.0368 7.15266V5.1763C30.0368 4.74061 29.7711 4.52722 29.3355 4.52722C29.0917 4.52722 28.7024 4.72566 28.4496 4.89381V7.1526C28.4496 7.40518 28.6183 7.40518 28.8323 7.40518H28.9693V7.60359C28.7024 7.60359 28.4349 7.58833 28.1603 7.58833C27.8859 7.58833 27.6107 7.59585 27.3363 7.60359V7.40518H27.4739C27.6875 7.40518 27.8398 7.40518 27.8398 7.1526V5.12997H27.8399ZM31.747 5.49681C31.7311 5.56567 31.7311 5.67996 31.747 5.93971C31.7919 6.66453 32.2586 7.25979 32.8681 7.25979C33.2881 7.25979 33.6169 7.03085 33.8988 6.74864L34.0053 6.85577C33.6541 7.32112 33.2193 7.71792 32.594 7.71792C31.3805 7.71792 31.1363 6.54214 31.1363 6.05406C31.1363 4.55775 32.1434 4.11485 32.6771 4.11485C33.2956 4.11485 33.9598 4.50393 33.967 5.31309C33.967 5.35945 33.967 5.40466 33.9598 5.45103L33.8907 5.49681H31.747ZM33.0978 5.25236C33.2881 5.25236 33.3106 5.15301 33.3106 5.06172C33.3106 4.67236 33.0742 4.35934 32.6467 4.35934C32.1817 4.35934 31.8613 4.70231 31.7697 5.25236H33.0978ZM34.1427 7.40521H34.3488C34.5618 7.40521 34.7144 7.40521 34.7144 7.15263V5.00813C34.7144 4.77171 34.4326 4.72563 34.3177 4.66458V4.55055C34.8748 4.31355 35.1802 4.11485 35.2496 4.11485C35.2948 4.11485 35.3173 4.13789 35.3173 4.21449V4.90129H35.3334C35.5237 4.60382 35.8447 4.11485 36.3097 4.11485C36.5005 4.11485 36.7444 4.24444 36.7444 4.51945C36.7444 4.72563 36.5999 4.90936 36.3863 4.90936C36.1488 4.90936 36.1488 4.72563 35.8822 4.72563C35.7523 4.72563 35.3254 4.90129 35.3254 5.35945V7.15263C35.3254 7.40518 35.4777 7.40518 35.6916 7.40518H36.1185V7.60362C35.6988 7.59582 35.3795 7.58836 35.0507 7.58836C34.7381 7.58836 34.4173 7.59585 34.1427 7.60362V7.40521H34.1427ZM37.0804 6.54214C37.1797 7.04608 37.4846 7.47375 38.042 7.47375C38.4911 7.47375 38.6592 7.19903 38.6592 6.93179C38.6592 6.03102 36.9963 6.32101 36.9963 5.09225C36.9963 4.66461 37.34 4.11488 38.179 4.11488C38.4229 4.11488 38.7507 4.18399 39.0481 4.3369L39.1023 5.11474H38.9264C38.8504 4.63438 38.5835 4.35939 38.0946 4.35939C37.7895 4.35939 37.4998 4.53508 37.4998 4.86305C37.4998 5.75691 39.2699 5.48132 39.2699 6.67956C39.2699 7.18322 38.8653 7.71797 37.9573 7.71797C37.6521 7.71797 37.2937 7.61114 37.0268 7.4588L36.9427 6.58081L37.0804 6.54214ZM46.1597 3.65698H45.9694C45.8243 2.76428 45.1909 2.40518 44.3367 2.40518C43.4586 2.40518 42.1844 2.99261 42.1844 4.82441C42.1844 6.36734 43.2838 7.47369 44.4585 7.47369C45.2136 7.47369 45.8398 6.95477 45.9924 6.15309L46.1675 6.19859L45.9924 7.313C45.6719 7.51199 44.8097 7.71792 44.3056 7.71792C42.5206 7.71792 41.3917 6.56521 41.3917 4.84773C41.3917 3.28291 42.7877 2.16041 44.2831 2.16041C44.901 2.16041 45.4961 2.35968 46.0837 2.56587L46.1597 3.65698ZM46.435 7.40521H46.5795C46.7934 7.40521 46.9466 7.40521 46.9466 7.15263V2.90167C46.9466 2.40521 46.832 2.38992 46.5418 2.30612V2.18402C46.8469 2.08499 47.1674 1.94731 47.3278 1.85548C47.4109 1.80998 47.4725 1.77136 47.495 1.77136C47.5417 1.77136 47.5569 1.81747 47.5569 1.87877V7.15263C47.5569 7.40521 47.7245 7.40521 47.9384 7.40521H48.0671V7.60362C47.8088 7.60362 47.5417 7.58836 47.2667 7.58836C46.9924 7.58836 46.7177 7.59587 46.4349 7.60362V7.40521H46.435ZM51.3341 7.18319C51.3341 7.32112 51.4176 7.32861 51.5471 7.32861C51.639 7.32861 51.753 7.32112 51.8526 7.32112V7.48181C51.5241 7.51205 50.8985 7.67245 50.7534 7.71794L50.7151 7.69488V7.07721C50.2579 7.45097 49.9064 7.71794 49.3642 7.71794C48.9523 7.71794 48.5251 7.45097 48.5251 6.81024V4.85551C48.5251 4.6571 48.4948 4.46614 48.0681 4.42816V4.28303C48.3431 4.27554 48.9523 4.22972 49.0519 4.22972C49.1366 4.22972 49.1366 4.28303 49.1366 4.45091V6.41972C49.1366 6.64926 49.1366 7.30552 49.7999 7.30552C50.0593 7.30552 50.4024 7.10711 50.7226 6.84073V4.78637C50.7226 4.63432 50.3567 4.55052 50.0826 4.47389V4.33653C50.7684 4.29045 51.1965 4.22969 51.2722 4.22969C51.3341 4.22969 51.3341 4.28297 51.3341 4.36734V7.18319H51.3341ZM52.8523 4.66461C53.1572 4.40512 53.5691 4.11488 53.9892 4.11488C54.8745 4.11488 55.408 4.88664 55.408 5.71797C55.408 6.71783 54.6759 7.71792 53.5841 7.71792C53.0198 7.71792 52.7224 7.53448 52.5237 7.45094L52.2952 7.62603L52.1354 7.54254C52.2031 7.09216 52.2419 6.64926 52.2419 6.18391V2.90164C52.2419 2.40521 52.1267 2.38992 51.8371 2.30612V2.18402C52.1432 2.08499 52.4627 1.94731 52.6231 1.85545C52.7072 1.80995 52.7679 1.77136 52.7915 1.77136C52.837 1.77136 52.8522 1.81747 52.8522 1.87877V4.66458H52.8523V4.66461ZM52.8523 6.74058C52.8523 7.03085 53.1267 7.51982 53.638 7.51982C54.4544 7.51982 54.7976 6.71783 54.7976 6.03825C54.7976 5.21409 54.1726 4.52728 53.5772 4.52728C53.2942 4.52728 53.0581 4.71072 52.8523 4.88664V6.74058H52.8523ZM19.934 12.0415H19.9925C20.1416 12.0415 20.2994 12.0213 20.2994 11.8051V9.62916C20.2994 9.41258 20.1416 9.39217 19.9925 9.39217H19.934V9.26748C20.0961 9.26748 20.3452 9.28389 20.5493 9.28389C20.7566 9.28389 21.0053 9.26748 21.2005 9.26748V9.39217H21.1421C20.9932 9.39217 20.8352 9.41261 20.8352 9.62916V11.8051C20.8352 12.0213 20.9932 12.0415 21.1421 12.0415H21.2005V12.1668C21.0013 12.1668 20.7517 12.1504 20.5447 12.1504C20.3412 12.1504 20.0961 12.1668 19.934 12.1668V12.0415Z" fill="white"/>
<path d="M21.2004 12.1843C20.9997 12.1843 20.751 12.1676 20.5443 12.1676C20.3413 12.1676 20.0972 12.1843 19.9339 12.1843H19.9161V12.0236H19.9921C20.1426 12.0202 20.2797 12.0081 20.2811 11.8051V9.62914C20.2797 9.42612 20.1427 9.41256 19.9921 9.40971H19.9161V9.24902H19.9339C20.0972 9.24902 20.3459 9.26544 20.5489 9.26544C20.7556 9.26544 21.0041 9.24902 21.2004 9.24902H21.2188V9.40971H21.1422C20.9917 9.41259 20.8537 9.42612 20.8529 9.62914V11.8051C20.8537 12.0081 20.9916 12.0202 21.1422 12.0236H21.2188V12.1843H21.2004ZM21.1825 12.1489V12.0602H21.1423C20.994 12.0602 20.8175 12.0345 20.8166 11.8051V9.62914C20.8175 9.39963 20.994 9.37371 21.1423 9.37371H21.1825V9.2856C20.9908 9.2856 20.7504 9.30172 20.5489 9.30172C20.3516 9.30172 20.113 9.28675 19.9523 9.2856V9.37371H19.9921C20.14 9.37371 20.3171 9.39963 20.3171 9.62914V11.8051C20.3171 12.0346 20.14 12.0602 19.9921 12.0602H19.9523V12.1489C20.113 12.1471 20.3476 12.1322 20.5443 12.1322C20.7464 12.1322 20.9868 12.1477 21.1825 12.1489ZM24.0526 11.348L24.061 11.34V9.78263C24.061 9.44167 23.824 9.39214 23.6997 9.39214H23.6081V9.26742C23.8036 9.26742 23.9944 9.28384 24.1894 9.28384C24.3595 9.28384 24.5305 9.26742 24.7004 9.26742V9.39214H24.6382C24.4634 9.39214 24.2682 9.42523 24.2682 9.91941V11.8096C24.2682 11.9548 24.2725 12.0999 24.293 12.2287H24.1349L21.9973 9.84457V11.556C21.9973 11.9174 22.0672 12.0415 22.3874 12.0415H22.4576V12.1667C22.2794 12.1667 22.1012 12.1503 21.9224 12.1503C21.7361 12.1503 21.545 12.1667 21.3578 12.1667V12.0415H21.416C21.7025 12.0415 21.7894 11.8468 21.7894 11.5148V9.76538C21.7894 9.53299 21.598 9.39217 21.412 9.39217H21.3579V9.26748C21.5156 9.26748 21.6774 9.28387 21.8349 9.28387C21.9596 9.28387 22.0802 9.26748 22.2046 9.26748L24.0526 11.348Z" fill="white"/>
<path d="M24.2932 12.2468L24.1219 12.2404L22.015 9.89147V11.5559C22.0199 11.917 22.0749 12.0196 22.3876 12.0236H22.4766V12.1843H22.4581C22.2785 12.1843 22.0997 12.1676 21.9226 12.1676C21.7366 12.1676 21.546 12.1843 21.3577 12.1843H21.3396V12.0236H21.4162C21.6906 12.0222 21.7689 11.8459 21.772 11.5148V9.76563C21.7714 9.54446 21.5901 9.41027 21.4121 9.40969H21.3396V9.24958H21.3577C21.5164 9.24958 21.679 9.26542 21.8348 9.26542C21.9583 9.26542 22.0786 9.24958 22.2185 9.25563L24.0433 11.3103V9.78293C24.041 9.45234 23.8207 9.4126 23.6998 9.40969H23.5898V9.24958H23.6082C23.8043 9.24958 23.9955 9.26542 24.1895 9.26542C24.3585 9.26542 24.5287 9.24958 24.7003 9.24958H24.7184V9.40967H24.6384C24.4671 9.41459 24.2911 9.42954 24.2863 9.91937V11.8093C24.2863 11.9545 24.2906 12.0996 24.3108 12.2254L24.3148 12.2467H24.2932V12.2468ZM24.1355 12.2102H24.2728C24.2541 12.0855 24.2509 11.9473 24.2509 11.8093V9.91937C24.2509 9.4209 24.4597 9.3737 24.6384 9.3737H24.6822V9.28555C24.5187 9.2867 24.3546 9.30168 24.1896 9.30168C23.9996 9.30168 23.8148 9.2867 23.6268 9.28555L23.6265 9.3737H23.6999C23.8275 9.3737 24.0794 9.43069 24.0794 9.7829L24.0736 11.3523L24.0653 11.361L24.0512 11.3739L22.2048 9.28555C22.0816 9.28555 21.9613 9.30168 21.8349 9.30168C21.6826 9.30168 21.5268 9.2867 21.3762 9.28555L21.3754 9.37367H21.4122C21.6071 9.37367 21.8072 9.52255 21.8072 9.7656V11.5147C21.8072 11.8467 21.7148 12.0592 21.4163 12.0604L21.3762 12.0592V12.1488C21.5562 12.1471 21.741 12.1321 21.9227 12.1321C22.096 12.1321 22.2685 12.1471 22.44 12.1488V12.0604H22.3877C22.0609 12.0592 21.9797 11.917 21.9794 11.5559V9.79782L24.1355 12.2102ZM24.0528 11.3477L24.0661 11.3356L24.0528 11.3477ZM24.0433 11.3397V11.3382L24.0399 11.3353L24.0433 11.3397ZM25.3222 9.47475C25.0104 9.47475 24.9986 9.54965 24.9364 9.85256H24.8118C24.8282 9.73651 24.8489 9.62046 24.8616 9.49951C24.8782 9.38317 24.8863 9.26738 24.8863 9.14704H24.9862C25.0196 9.27173 25.1233 9.26741 25.2358 9.26741H27.3776C27.4898 9.26741 27.5935 9.26338 27.6021 9.13843L27.7011 9.15513C27.685 9.26741 27.6683 9.37946 27.6556 9.49174C27.6482 9.60379 27.6482 9.71607 27.6482 9.8278L27.5232 9.87416C27.5146 9.72067 27.4938 9.47475 27.216 9.47475H26.5351V11.6846C26.5351 12.0048 26.6805 12.0414 26.8792 12.0414H26.9583V12.1667C26.7965 12.1667 26.5055 12.1503 26.2818 12.1503C26.0328 12.1503 25.7417 12.1667 25.5796 12.1667V12.0414H25.6587C25.8876 12.0414 26.0034 12.021 26.0034 11.6933V9.47475H25.3222Z" fill="white"/>
<path d="M26.9599 12.1844C26.7963 12.1844 26.5058 12.1677 26.2827 12.1677C26.0339 12.1677 25.7435 12.1844 25.5805 12.1844H25.5632V12.0237H25.6597C25.8885 12.0182 25.9806 12.0153 25.9858 11.6933V9.493H25.3231V9.4564H26.0219V11.6933C26.0219 12.0265 25.8877 12.0602 25.6597 12.0605H25.5986V12.148C25.7625 12.1472 26.0417 12.1322 26.2827 12.1322C26.4992 12.1322 26.7767 12.1472 26.9409 12.148V12.0605H26.8801C26.6794 12.0602 26.5179 12.011 26.5179 11.6847V9.4564H27.2169C27.4956 9.45755 27.5319 9.69455 27.5411 9.84861L27.6307 9.8155C27.6307 9.70722 27.6312 9.59866 27.6387 9.48923C27.6508 9.38239 27.6661 9.27642 27.6816 9.17045L27.6183 9.15979C27.599 9.28074 27.4824 9.28679 27.3779 9.28563H25.2151C25.1175 9.28563 25.0107 9.28103 24.9736 9.165H24.9051C24.9046 9.27773 24.8965 9.3903 24.8806 9.5019C24.8685 9.61596 24.8495 9.72568 24.8339 9.83539H24.9229C24.9776 9.54596 25.0133 9.45208 25.3231 9.45643V9.493C25.0162 9.49847 25.0225 9.55031 24.9548 9.85728L24.9517 9.87139H24.7919L24.7942 9.84979C24.8109 9.73345 24.832 9.61766 24.8443 9.49672C24.8616 9.38153 24.8696 9.26634 24.8696 9.14712V9.12898H25.0012L25.0041 9.14194C25.0326 9.24676 25.1095 9.24733 25.2151 9.24906H27.3779C27.4936 9.24733 27.5777 9.24561 27.5849 9.13701L27.5866 9.11743L27.6053 9.12146L27.7225 9.13992L27.7199 9.15806C27.7032 9.26922 27.6868 9.38153 27.6747 9.49297C27.6663 9.60355 27.6663 9.71586 27.6663 9.82788V9.84084L27.6548 9.84545L27.5077 9.89898L27.5066 9.87479C27.4956 9.71871 27.4792 9.49294 27.2169 9.49294H26.5542V11.6847C26.5579 11.998 26.6823 12.0196 26.88 12.0236H26.9774V12.1843L26.9599 12.1844ZM27.8348 12.0415H27.8932C28.0424 12.0415 28.2004 12.0214 28.2004 11.8051V9.62918C28.2004 9.4126 28.0424 9.39218 27.8932 9.39218H27.8348V9.26749C28.0876 9.26749 28.52 9.28391 28.868 9.28391C29.2176 9.28391 29.6486 9.26749 29.9307 9.26749C29.9238 9.44574 29.9276 9.72047 29.9399 9.90278L29.8147 9.93616C29.7948 9.66636 29.745 9.45067 29.3088 9.45067H28.7322V10.5383H29.2257C29.4747 10.5383 29.5291 10.3975 29.5536 10.1726H29.6779C29.6699 10.3353 29.6656 10.4972 29.6656 10.659C29.6656 10.8171 29.6699 10.9746 29.6779 11.1324L29.5536 11.1572C29.5291 10.9081 29.5165 10.7462 29.2297 10.7462H28.7322V11.7135C28.7322 11.9839 28.972 11.9839 29.2381 11.9839C29.7364 11.9839 29.9561 11.9502 30.0807 11.4774L30.1971 11.5059C30.1426 11.7265 30.0931 11.9462 30.0563 12.1668C29.7903 12.1668 29.3126 12.1504 28.9395 12.1504C28.5652 12.1504 28.0715 12.1668 27.8348 12.1668V12.0415Z" fill="white"/>
<path d="M30.0559 12.1844C29.7893 12.1844 29.312 12.1674 28.9392 12.1674C28.5652 12.1674 28.0717 12.1844 27.8347 12.1844H27.8172V12.0238H27.8929C28.0435 12.0215 28.1799 12.0082 28.182 11.8052V9.62927C28.18 9.42654 28.0435 9.41301 27.8929 9.40984H27.8172V9.24976H27.8347C28.0881 9.24976 28.52 9.26559 28.868 9.26559C29.2172 9.26559 29.648 9.24976 29.9307 9.24976H29.9494L29.9485 9.26819C29.9456 9.33068 29.9445 9.40437 29.9445 9.48272C29.9445 9.62639 29.9485 9.78333 29.9569 9.90172L29.9575 9.91669L29.9436 9.92075L29.7977 9.95876L29.7968 9.93745C29.7724 9.66792 29.7364 9.47238 29.3089 9.46835H28.7495L28.7489 10.5197H29.2257C29.4647 10.5174 29.5075 10.395 29.5357 10.1713L29.5372 10.1549H29.6964L29.6961 10.1736C29.6881 10.3354 29.6829 10.4972 29.6829 10.6591C29.6829 10.8163 29.6881 10.9738 29.6961 11.1319L29.6964 11.1466L29.6814 11.1501L29.5372 11.1789L29.5357 11.1593C29.5072 10.9059 29.5052 10.7671 29.2294 10.7639L28.7494 10.7636V11.7136C28.7498 11.9659 28.9674 11.9644 29.238 11.9659C29.7378 11.963 29.9382 11.9388 30.0635 11.4723L30.0675 11.4556L30.0851 11.4588L30.2181 11.493L30.214 11.5103C30.1605 11.7303 30.1107 11.9498 30.0735 12.1697L30.0701 12.1844H30.0559ZM30.0407 12.1482C30.0767 11.9388 30.1241 11.7286 30.1751 11.5195L30.0931 11.4988C29.9687 11.9636 29.728 12.005 29.238 12.0019C28.9766 12.0019 28.7146 12.0019 28.7134 11.7136V10.7282H29.2294C29.5192 10.725 29.5489 10.9001 29.5694 11.1365L29.6592 11.1178C29.6512 10.965 29.6473 10.812 29.6474 10.659C29.6474 10.5027 29.6511 10.3472 29.6592 10.1908H29.5694C29.5464 10.4071 29.4787 10.5591 29.2256 10.5562H28.7134V9.43201H29.3089C29.7407 9.4291 29.8124 9.65202 29.8308 9.91321L29.9204 9.88902C29.9132 9.77181 29.9082 9.6215 29.9082 9.48269C29.9082 9.41157 29.91 9.34447 29.9123 9.28572C29.6302 9.28688 29.2098 9.30185 28.8681 9.30185C28.5269 9.30185 28.1069 9.28688 27.8526 9.28572V9.37384H27.8929C28.0409 9.37384 28.2177 9.39976 28.2182 9.62927V11.8052C28.2177 12.0341 28.0409 12.0595 27.8929 12.0606H27.8526V12.1482C28.0948 12.1478 28.5744 12.1323 28.9391 12.1323C29.3054 12.1323 29.7729 12.1478 30.0407 12.1482ZM30.7574 9.7076C30.7574 9.40465 30.5915 9.39227 30.4623 9.39227H30.3877V9.26729C30.5207 9.26729 30.7778 9.284 31.0312 9.284C31.2802 9.284 31.4797 9.26729 31.6994 9.26729C32.2222 9.26729 32.6878 9.40869 32.6878 9.99902C32.6878 10.3719 32.4387 10.6006 32.1108 10.7299L32.8205 11.7925C32.9368 11.9682 33.0194 12.0174 33.2232 12.0416V12.1669C33.0862 12.1669 32.9532 12.1504 32.8164 12.1504C32.6877 12.1504 32.5544 12.1669 32.4263 12.1669C32.1067 11.7473 31.8321 11.2986 31.5623 10.8206H31.2891V11.7098C31.2891 12.0301 31.438 12.0416 31.6288 12.0416H31.7037V12.1669C31.4664 12.1669 31.2267 12.1505 30.9897 12.1505C30.7902 12.1505 30.595 12.1669 30.3877 12.1669V12.0416H30.4623C30.6165 12.0416 30.7574 11.9719 30.7574 11.8178V9.7076ZM31.2891 10.6711H31.4918C31.9072 10.6711 32.1309 10.5134 32.1309 10.0232C32.1309 9.65404 31.8945 9.41704 31.5246 9.41704C31.3999 9.41704 31.347 9.43 31.289 9.43374V10.6711H31.2891Z" fill="white"/>
<path d="M33.2232 12.1842C33.0841 12.1842 32.952 12.1675 32.8155 12.1675C32.6888 12.1675 32.5564 12.1842 32.4116 12.1773C32.0932 11.7595 31.8202 11.3134 31.5519 10.8388H31.3066V11.7091C31.3109 12.0216 31.4365 12.019 31.6285 12.0236H31.7215V12.1843H31.703C31.4658 12.1843 31.2249 12.1676 30.9891 12.1676C30.7907 12.1676 30.5961 12.1843 30.3876 12.1843H30.3694V12.0236H30.4622C30.6119 12.0227 30.738 11.9576 30.7386 11.8177V9.70747C30.7354 9.41259 30.5912 9.41429 30.4622 9.41H30.3694V9.24902H30.3876C30.5221 9.24902 30.7783 9.26541 31.0311 9.26541C31.2789 9.26541 31.4785 9.24902 31.6996 9.24902C32.2227 9.25018 32.7047 9.39474 32.7061 9.99774C32.7061 10.373 32.4582 10.6071 32.1378 10.7378L32.8354 11.7825C32.9514 11.9547 33.0237 11.9977 33.2258 12.0236L33.241 12.0259V12.1843H33.2232V12.1842ZM31.2885 10.8025H31.5724L31.5773 10.8117C31.8479 11.2889 32.1205 11.737 32.4263 12.1488C32.553 12.1488 32.6862 12.1318 32.8155 12.1318C32.9482 12.1318 33.076 12.1462 33.2053 12.1482V12.0572C33.0104 12.033 32.9192 11.9748 32.8057 11.8024L32.0834 10.721L32.1038 10.7127C32.4286 10.5848 32.669 10.3628 32.6693 9.99763C32.669 9.4214 32.2216 9.28781 31.6996 9.28551C31.4805 9.28551 31.2813 9.30192 31.0311 9.30192C30.7873 9.30192 30.5411 9.28666 30.4052 9.28551V9.37363H30.4622C30.5912 9.37394 30.7748 9.39523 30.7748 9.70741V11.8176C30.7748 11.9844 30.6185 12.0604 30.4622 12.0607H30.4052V12.1482C30.605 12.1476 30.7941 12.1318 30.9891 12.1318C31.2213 12.1318 31.4554 12.1476 31.6852 12.1482V12.0607H31.6285C31.439 12.0603 31.2703 12.0368 31.2703 11.7091V10.8025H31.2885H31.2885ZM31.2885 10.6885H31.2703V9.41682L31.2862 9.41538C31.3429 9.41109 31.3991 9.39926 31.5246 9.39926C31.9029 9.39926 32.1487 9.64518 32.1493 10.0238C32.1482 10.5197 31.9104 10.6882 31.4917 10.6885H31.2885V10.6885ZM31.4917 10.6528C31.9028 10.6493 32.1096 10.5065 32.1139 10.0239C32.1116 9.66102 31.8862 9.43583 31.5245 9.43439C31.4123 9.43439 31.3596 9.44476 31.3066 9.44939V10.6528H31.4917ZM36.042 11.3479L36.0495 11.3399V9.78254C36.0495 9.44159 35.8132 9.39206 35.6888 9.39206H35.5978V9.26734C35.7927 9.26734 35.9834 9.28375 36.1788 9.28375C36.3493 9.28375 36.5189 9.26734 36.6901 9.26734V9.39206H36.6277C36.4532 9.39206 36.258 9.42514 36.258 9.91933V11.8096C36.258 11.9547 36.2621 12.0998 36.2825 12.2286H36.125L33.9871 9.84448V11.5559C33.9871 11.9173 34.0576 12.0414 34.3771 12.0414H34.4477V12.1667C34.2695 12.1667 34.0907 12.1503 33.9125 12.1503C33.725 12.1503 33.5342 12.1667 33.3476 12.1667V12.0414H33.4052C33.692 12.0414 33.7792 11.8467 33.7792 11.5147V9.76529C33.7792 9.5329 33.5883 9.39209 33.4017 9.39209H33.3476V9.2674C33.5048 9.2674 33.6675 9.28378 33.8249 9.28378C33.9488 9.28378 34.0697 9.2674 34.1943 9.2674L36.042 11.3479Z" fill="white"/>
<path d="M36.2824 12.2466L36.1114 12.2409L34.0043 9.89163V11.5558C34.0092 11.9172 34.0639 12.0197 34.3771 12.0238H34.465V12.1844H34.4468C34.2672 12.1844 34.0892 12.1674 33.9113 12.1674C33.7259 12.1674 33.5342 12.1844 33.3473 12.1844H33.3286V12.0238H33.4049C33.679 12.0226 33.7576 11.8461 33.7602 11.5138V9.7655C33.7599 9.54431 33.5788 9.41015 33.4015 9.40983H33.3286V9.24917H33.3473C33.5057 9.24917 33.6681 9.26556 33.8247 9.26556C33.9467 9.26556 34.0671 9.24917 34.2064 9.2549L36.0314 11.3105V9.78247C36.0303 9.45245 35.8092 9.41156 35.6885 9.40986H35.5788V9.24917H35.597C35.7933 9.24917 35.9845 9.26556 36.1785 9.26556C36.3478 9.26556 36.518 9.24917 36.689 9.24917H36.7071V9.40986H36.6273C36.4561 9.41447 36.2796 9.4297 36.2752 9.91957V11.8095C36.2752 11.9546 36.279 12.0986 36.3 12.2265L36.3023 12.2466H36.2824ZM36.1247 12.2103H36.2612C36.243 12.0856 36.239 11.9474 36.239 11.8095V9.91954C36.2392 9.42103 36.4494 9.37499 36.6273 9.37355H36.6708V9.28572C36.5079 9.28687 36.3435 9.30184 36.1785 9.30184C35.9879 9.30184 35.8028 9.28687 35.6148 9.28572V9.37355H35.6885C35.8163 9.37499 36.068 9.43085 36.068 9.78247L36.0622 11.3525L36.0542 11.3611L36.0415 11.3744L34.1938 9.28575C34.0705 9.28575 33.9502 9.30187 33.8247 9.30187C33.6709 9.30187 33.5158 9.2869 33.3646 9.28575V9.37358H33.4014C33.5964 9.37502 33.7965 9.52217 33.7965 9.7655V11.5137C33.7965 11.8472 33.7026 12.0594 33.4049 12.0606L33.3646 12.0603V12.1481C33.544 12.1473 33.7291 12.1323 33.9113 12.1323C34.0855 12.1323 34.258 12.1473 34.4296 12.1481V12.0606H34.3772C34.0501 12.0603 33.9684 11.9172 33.9678 11.5558V9.79859L36.1247 12.2103ZM36.0417 11.3479L36.0544 11.3361L36.0417 11.3479ZM36.0314 11.3401V11.3386L36.0282 11.3355L36.0314 11.3401ZM37.3575 11.5728C37.3155 11.7136 37.2654 11.8224 37.2654 11.8965C37.2654 12.0214 37.4402 12.0416 37.5767 12.0416H37.623V12.1669C37.4566 12.1579 37.287 12.1504 37.1198 12.1504C36.9704 12.1504 36.8218 12.158 36.6721 12.1669V12.0416H36.6971C36.8589 12.0416 36.9963 11.9462 37.0576 11.7715L37.7226 9.86566C37.7762 9.71188 37.8516 9.50426 37.8767 9.35022C38.0089 9.30501 38.1752 9.22208 38.2539 9.17197C38.2668 9.16768 38.274 9.16333 38.287 9.16333C38.2994 9.16333 38.3074 9.16333 38.3166 9.17629C38.3287 9.20912 38.3408 9.24684 38.3541 9.27996L39.1178 11.4524C39.1676 11.5975 39.2168 11.751 39.2707 11.876C39.3208 11.9923 39.4083 12.0416 39.5456 12.0416H39.5701V12.1669C39.3833 12.1579 39.1962 12.1505 38.9975 12.1505C38.794 12.1505 38.5858 12.158 38.3742 12.1669V12.0416H38.4203C38.5153 12.0416 38.6777 12.0255 38.6777 11.9215C38.6777 11.8677 38.6402 11.7556 38.5939 11.6223L38.4324 11.1405H37.4901L37.3575 11.5728ZM37.9633 9.73265H37.9549L37.5689 10.9081H38.3448L37.9633 9.73265Z" fill="white"/>
<path d="M39.568 12.1843C39.3811 12.1759 39.1943 12.1673 38.9965 12.1673C38.7929 12.1673 38.5862 12.1759 38.3737 12.1843L38.355 12.1854V12.023H38.4189C38.5151 12.023 38.6579 12.0011 38.6579 11.9214C38.659 11.8741 38.6216 11.7601 38.5758 11.628L38.4178 11.1583H37.502L37.373 11.5778C37.3309 11.7195 37.2812 11.8292 37.2814 11.8969C37.2828 11.9983 37.438 12.023 37.5756 12.023H37.6396V12.1854L37.6209 12.1843C37.4548 12.1759 37.2852 12.1673 37.1196 12.1673C36.9708 12.1673 36.8211 12.1759 36.6723 12.1843L36.653 12.1854V12.023H36.6959C36.8504 12.0224 36.9795 11.9346 37.0393 11.7656L37.7041 9.85953C37.7585 9.70547 37.8334 9.49842 37.8694 9.33284C37.9995 9.28878 38.1662 9.20527 38.2462 9.15458C38.2577 9.15084 38.2693 9.14508 38.2863 9.14508C38.2963 9.14479 38.3188 9.14738 38.332 9.1693C38.3439 9.20354 38.3568 9.24043 38.3694 9.27412L39.1341 11.4463C39.1831 11.592 39.2326 11.7455 39.2868 11.8682C39.3348 11.979 39.4111 12.0225 39.5447 12.0231H39.587V12.1855L39.568 12.1843ZM38.3913 12.1471C38.5969 12.1399 38.7981 12.1319 38.9965 12.1319C39.1893 12.1319 39.3699 12.1399 39.5503 12.1471V12.0604H39.5446C39.4024 12.0613 39.3042 12.0055 39.2532 11.8831C39.1991 11.7569 39.1485 11.6029 39.0998 11.4574L38.3354 9.28558C38.3228 9.25246 38.3107 9.21474 38.2997 9.18537C38.2963 9.18134 38.2971 9.18133 38.2937 9.18133H38.2862C38.2775 9.18133 38.2727 9.18393 38.262 9.18681C38.182 9.23893 38.0153 9.32042 37.8923 9.35296C37.8667 9.5102 37.7921 9.71753 37.738 9.87131L37.0735 11.7777C37.0102 11.9579 36.8648 12.0607 36.6958 12.0604H36.6892V12.1471C36.8314 12.1399 36.9754 12.1319 37.1196 12.1319C37.28 12.1319 37.4441 12.1399 37.6024 12.1471V12.0604H37.5756C37.4406 12.0587 37.2518 12.0434 37.2466 11.8969C37.2469 11.8139 37.2978 11.7077 37.3384 11.5675L37.3565 11.5729L37.3384 11.5668L37.4751 11.1228H38.4431L38.6098 11.6164C38.6564 11.7497 38.6941 11.8603 38.6941 11.9214C38.6884 12.0489 38.5131 12.0579 38.4189 12.0605H38.3912V12.1471H38.3913ZM37.5426 10.9258L37.9401 9.71434H37.9626V9.73248L37.958 9.73334L37.9626 9.73248V9.71434H37.975L38.3691 10.9258H37.5426ZM37.5923 10.8898H38.319L37.9577 9.77683L37.5923 10.8898ZM37.9444 9.73769L37.9539 9.73452L37.9444 9.73769ZM39.7517 9.47475C39.4402 9.47475 39.4278 9.54965 39.3652 9.85256H39.2406C39.257 9.73651 39.278 9.62046 39.291 9.49951C39.3077 9.38317 39.3152 9.26738 39.3152 9.14704H39.4154C39.4485 9.27173 39.5527 9.26741 39.6641 9.26741H41.807C41.9185 9.26741 42.0221 9.26338 42.0307 9.13843L42.13 9.15513C42.1142 9.26741 42.0978 9.37946 42.0851 9.49174C42.0762 9.60379 42.0762 9.71607 42.0762 9.8278L41.9518 9.87416C41.944 9.72067 41.9233 9.47475 41.6449 9.47475H40.964V11.6846C40.964 12.0049 41.1097 12.0415 41.3084 12.0415H41.3872V12.1667C41.2254 12.1667 40.9352 12.1503 40.7106 12.1503C40.4619 12.1503 40.1708 12.1667 40.0091 12.1667V12.0415H40.0877C40.3165 12.0415 40.4328 12.021 40.4328 11.6933V9.47475H39.7517Z" fill="white"/>
<path d="M41.3873 12.1843C41.2243 12.1843 40.9336 12.1676 40.7107 12.1676C40.4625 12.1676 40.1717 12.1843 40.0091 12.1843H39.9907V12.0237H40.0877C40.3165 12.0182 40.4084 12.0153 40.4142 11.6933L40.4136 9.49297H39.7517V9.45637H40.4501V11.6933C40.4501 12.0265 40.3157 12.0593 40.0877 12.0602H40.0267V12.1489C40.191 12.1471 40.4697 12.1322 40.7107 12.1322C40.9275 12.1322 41.2051 12.1472 41.3691 12.1489V12.0602H41.3078C41.1083 12.0593 40.9465 12.0112 40.9459 11.6847V9.45637H41.6449C41.9236 9.45752 41.9602 9.69452 41.968 9.84859L42.0587 9.81547C42.0587 9.70719 42.059 9.59863 42.067 9.48978C42.0785 9.38294 42.094 9.27639 42.1094 9.17039L42.0466 9.15974C42.0276 9.28068 41.9104 9.28733 41.8071 9.28558H39.6431C39.5453 9.28673 39.4393 9.28097 39.4016 9.16434H39.3337C39.3325 9.27953 39.3247 9.39129 39.3083 9.50187C39.2974 9.6162 39.2769 9.7262 39.2614 9.83534H39.3504C39.4053 9.5459 39.4413 9.45202 39.7517 9.45637V9.49294C39.4439 9.49816 39.4508 9.55025 39.3828 9.85723L39.3797 9.87134H39.2196L39.2222 9.85057C39.2395 9.7334 39.2602 9.61761 39.2723 9.49752C39.2893 9.38147 39.2973 9.26628 39.2973 9.14706V9.12892H39.4286L39.4321 9.14188C39.4611 9.2467 39.5368 9.24728 39.6431 9.24901L39.6641 9.24958H41.807C41.9216 9.24731 42.0053 9.24555 42.0125 9.1373L42.0137 9.11743L42.0333 9.12149L42.151 9.13992L42.1479 9.15806C42.1309 9.26922 42.1151 9.38153 42.1024 9.49297C42.094 9.60355 42.094 9.71615 42.094 9.82788V9.84084L42.0823 9.84545L41.9351 9.89901L41.9343 9.87479C41.9236 9.71874 41.9072 9.49294 41.6449 9.49294H40.9819V11.6847C40.9862 11.998 41.1103 12.0196 41.3078 12.0236H41.4051V12.1843L41.3873 12.1843ZM42.2834 12.0415H42.3416C42.4915 12.0415 42.6484 12.0213 42.6484 11.8051V9.62915C42.6484 9.41257 42.4915 9.39216 42.3416 9.39216H42.2834V9.26746C42.4455 9.26746 42.6943 9.28388 42.8972 9.28388C43.1056 9.28388 43.3547 9.26746 43.5499 9.26746V9.39216H43.4917C43.3423 9.39216 43.184 9.4126 43.184 9.62915V11.8051C43.184 12.0213 43.3423 12.0415 43.4917 12.0415H43.5499V12.1668C43.3504 12.1668 43.101 12.1504 42.8941 12.1504C42.6902 12.1504 42.4455 12.1668 42.2834 12.1668V12.0415Z" fill="white"/>
<path d="M43.5496 12.1844C43.349 12.1844 43.1005 12.1674 42.8935 12.1674C42.6905 12.1674 42.4452 12.1844 42.2831 12.1844H42.265V12.0237H42.3413C42.4913 12.0214 42.6289 12.0084 42.6295 11.8051V9.62921C42.6289 9.42648 42.4913 9.41263 42.3413 9.40978H42.265V9.2497H42.2831C42.4452 9.2497 42.6946 9.26554 42.8969 9.26554C43.104 9.26554 43.353 9.2497 43.5496 9.2497H43.5672V9.40978H43.4915C43.3397 9.41266 43.2036 9.42648 43.2015 9.62921V11.8051C43.2036 12.0084 43.3398 12.0214 43.4915 12.0237H43.5672V12.1844H43.5496ZM43.5309 12.1481V12.0602H43.4915C43.3426 12.0602 43.1664 12.0341 43.1664 11.8051V9.62921C43.1664 9.3997 43.3426 9.37378 43.4915 9.37378H43.5309V9.28567C43.3392 9.28682 43.0994 9.30179 42.8969 9.30179C42.7003 9.30179 42.4622 9.28682 42.3013 9.28567V9.37378H42.3413C42.489 9.37378 42.6658 9.3997 42.6664 9.62921V11.8051C42.6658 12.034 42.489 12.0602 42.3413 12.0602H42.3013V12.1481C42.4614 12.1463 42.6963 12.1322 42.8935 12.1322C43.0948 12.1322 43.3352 12.1472 43.5309 12.1481H43.5309ZM45.2052 9.20532C46.0902 9.20532 46.7956 9.75419 46.7956 10.6385C46.7956 11.5941 46.1106 12.229 45.2268 12.229C44.3458 12.229 43.6739 11.6309 43.6739 10.7379C43.6739 9.87427 44.3418 9.20532 45.2052 9.20532ZM45.268 12.0461C46.0735 12.0461 46.2137 11.3354 46.2137 10.7298C46.2137 10.1228 45.8867 9.38789 45.1972 9.38789C44.4705 9.38789 44.2549 10.0358 44.2549 10.5919C44.2549 11.3354 44.5952 12.0461 45.268 12.0461Z" fill="white"/>
<path d="M43.6554 10.7377C43.6572 9.86403 44.3332 9.18816 45.2052 9.18701V9.22269C44.3519 9.22269 43.6914 9.88303 43.6906 10.7377C43.6926 11.6206 44.3551 12.2098 45.2269 12.2101C46.102 12.2098 46.7772 11.5837 46.7786 10.6375C46.7778 9.76439 46.083 9.22384 45.2053 9.22269V9.18701C46.0972 9.18759 46.812 9.74193 46.8138 10.6375C46.8129 11.603 46.119 12.2447 45.2269 12.2464C44.3389 12.2446 43.6572 11.6405 43.6555 10.7377H43.6554V10.7377ZM44.2371 10.5917C44.2382 10.0331 44.4564 9.36901 45.1975 9.36901C45.9023 9.37076 46.2313 10.1195 46.2325 10.7297C46.2313 11.3353 46.0889 12.0633 45.2683 12.0633V12.0281C46.0578 12.027 46.1945 11.3353 46.1965 10.7297C46.1965 10.1275 45.8723 9.40676 45.1975 9.40587C44.4852 9.40673 44.2744 10.0385 44.2731 10.5917C44.2736 11.3315 44.6108 12.0264 45.2683 12.0281V12.0633C44.5791 12.0624 44.2382 11.3396 44.2371 10.5917ZM49.5936 11.3479L49.602 11.3399V9.78253C49.602 9.44158 49.3648 9.39205 49.2401 9.39205H49.1502V9.26733C49.3449 9.26733 49.5358 9.28374 49.7304 9.28374C49.9011 9.28374 50.0712 9.26733 50.2417 9.26733V9.39205H50.1789C50.005 9.39205 49.8095 9.42513 49.8095 9.91932V11.8095C49.8095 11.9547 49.8136 12.0998 49.8346 12.2286H49.6771L47.5385 9.84447V11.5559C47.5385 11.9173 47.6088 12.0414 47.9284 12.0414H47.9995V12.1667C47.8207 12.1667 47.6425 12.1502 47.464 12.1502C47.2771 12.1502 47.0857 12.1667 46.8988 12.1667V12.0414H46.9573C47.2443 12.0414 47.3304 11.8467 47.3304 11.5147V9.76528C47.3304 9.53289 47.1403 9.39207 46.9529 9.39207H46.8988V9.26738C47.0566 9.26738 47.2187 9.28377 47.3762 9.28377C47.5008 9.28377 47.6209 9.26738 47.7459 9.26738L49.5936 11.3479Z" fill="white"/>
<path d="M49.8342 12.2466L49.6624 12.2405L47.5558 9.8916V11.5561C47.5604 11.9172 47.6154 12.0194 47.9272 12.0232H48.017V12.1844H47.9988C47.8189 12.1844 47.6407 12.1677 47.4633 12.1677C47.277 12.1677 47.0865 12.1844 46.8979 12.1844H46.8806V12.0232H46.9566C47.2304 12.0223 47.309 11.8461 47.3125 11.5149V9.7655C47.3119 9.54434 47.1308 9.41015 46.9523 9.40986H46.8806V9.24975H46.8979C47.0571 9.24975 47.2189 9.26562 47.3755 9.26562C47.4988 9.26562 47.6185 9.24975 47.759 9.25582L49.5832 11.3105V9.78309C49.582 9.45253 49.3609 9.41277 49.2394 9.40989H49.1303V9.24981H49.149C49.3445 9.24981 49.5359 9.26564 49.7291 9.26564C49.8995 9.26564 50.0688 9.24981 50.241 9.24981H50.2588V9.40989H50.1782C50.0074 9.41478 49.8307 9.43033 49.8272 9.91959V11.8095C49.8272 11.9547 49.8304 12.0995 49.8506 12.2265L49.854 12.2466H49.8342V12.2466ZM49.6765 12.2103H49.8124C49.7943 12.0856 49.7911 11.9474 49.7911 11.8095V9.91953C49.7911 9.4202 50.0004 9.37499 50.1783 9.37355H50.2232V9.28572C50.0594 9.28687 49.8953 9.30184 49.7292 9.30184C49.5404 9.30184 49.3546 9.28687 49.1667 9.28572V9.37355H49.2395C49.3682 9.37499 49.6186 9.43174 49.6186 9.78304L49.6141 11.3525L49.6063 11.3611L49.5931 11.3743L47.7453 9.28574C47.623 9.28574 47.5017 9.30187 47.3756 9.30187C47.2227 9.30187 47.067 9.2869 46.9158 9.28574V9.37357H46.9524C47.1473 9.37501 47.348 9.52217 47.348 9.7655V11.5149C47.348 11.8469 47.2553 12.0594 46.9567 12.0606L46.9158 12.0603V12.1481C47.0961 12.1473 47.2809 12.1323 47.4634 12.1323C47.6365 12.1323 47.8083 12.1473 47.9808 12.1481V12.0606H47.9272C47.6014 12.0603 47.5199 11.9172 47.5199 11.556V9.79801L49.6765 12.2103ZM49.593 11.3478L49.6062 11.336L49.593 11.3478ZM49.5832 11.3401V11.3386L49.5797 11.3355L49.5832 11.3401ZM50.9082 11.5728C50.8676 11.7136 50.8172 11.8224 50.8172 11.8964C50.8172 12.0214 50.992 12.0416 51.1282 12.0416H51.1745V12.1668C51.0084 12.1579 50.838 12.1504 50.6719 12.1504C50.5218 12.1504 50.373 12.1579 50.2242 12.1668V12.0416H50.2478C50.4104 12.0416 50.548 11.9462 50.6094 11.7714L51.2744 9.86565C51.328 9.71188 51.4031 9.50425 51.4274 9.35022C51.5603 9.30501 51.7262 9.22208 51.8059 9.17197C51.8177 9.16768 51.8261 9.16333 51.8387 9.16333C51.8511 9.16333 51.8589 9.16333 51.8672 9.17629C51.8799 9.20912 51.8929 9.24684 51.9052 9.27996L52.6688 11.4524C52.7186 11.5975 52.7681 11.751 52.8228 11.876C52.8726 11.9923 52.9601 12.0416 53.0966 12.0416H53.1219V12.1668C52.9348 12.1579 52.748 12.1504 52.5484 12.1504C52.3454 12.1504 52.1376 12.1579 51.9257 12.1668V12.0416H51.9718C52.0665 12.0416 52.2294 12.0254 52.2294 11.9215C52.2294 11.8676 52.1917 11.7556 52.1454 11.6223L51.9842 11.1405H51.0416L50.9082 11.5728ZM51.5151 9.73264H51.5068L51.1201 10.9081H51.8971L51.5151 9.73264Z" fill="white"/>
<path d="M53.1206 12.1844C52.9337 12.1769 52.7472 12.1677 52.5488 12.1677C52.3464 12.1677 52.1386 12.1769 51.9267 12.1844L51.9083 12.1855V12.0237H51.9713C52.068 12.0237 52.2111 12.0012 52.2114 11.9214C52.2122 11.8742 52.1748 11.761 52.1285 11.628L51.9707 11.1583H51.0543L50.9259 11.5779C50.8845 11.7201 50.8349 11.8293 50.8358 11.8964C50.8358 11.9983 50.9912 12.0237 51.1286 12.0237H51.1919V12.1855L51.1735 12.1844C51.0074 12.1769 50.8375 12.1677 50.6723 12.1677C50.5234 12.1677 50.3743 12.1769 50.2246 12.1844L50.2064 12.1855V12.0237H50.2482C50.403 12.0231 50.5326 11.9341 50.5931 11.7657L51.2576 9.85959C51.3105 9.70553 51.3854 9.49848 51.4222 9.33347C51.5527 9.28826 51.7193 9.20533 51.8 9.15462C51.8109 9.15087 51.8221 9.14598 51.8391 9.14598C51.8501 9.14482 51.8713 9.14742 51.8846 9.17017C51.897 9.20274 51.9091 9.24043 51.9229 9.27412L52.6864 11.4463C52.7359 11.592 52.7858 11.7455 52.8396 11.869C52.8882 11.979 52.9639 12.0225 53.0964 12.0237H53.1396V12.1855L53.1206 12.1844ZM51.944 12.1478C52.1492 12.14 52.3513 12.1319 52.5488 12.1319C52.742 12.1319 52.9231 12.14 53.1039 12.1472L53.1033 12.0605H53.0964C52.9559 12.0608 52.8578 12.0055 52.8062 11.8831C52.7515 11.757 52.702 11.6029 52.6525 11.458L51.8883 9.28564C51.8759 9.25253 51.8633 9.2148 51.8532 9.18658C51.8498 9.1814 51.8501 9.1814 51.8469 9.1814H51.8391C51.8305 9.1814 51.8258 9.18428 51.8157 9.18716C51.7349 9.23813 51.5684 9.32103 51.4455 9.35303C51.4199 9.51026 51.3445 9.71731 51.291 9.87137L50.6262 11.7777C50.5631 11.958 50.418 12.0608 50.2482 12.0605H50.2421V12.1472C50.3849 12.14 50.5277 12.1319 50.6722 12.1319C50.8332 12.1319 50.997 12.14 51.1568 12.1472V12.0605H51.1286C50.9936 12.0588 50.8041 12.0441 50.7992 11.8964C50.8001 11.814 50.8516 11.7083 50.8916 11.5675L50.9086 11.5729L50.8916 11.5669L51.0284 11.1229H51.9966L52.163 11.6164C52.2088 11.7501 52.2465 11.8604 52.2465 11.9214C52.2404 12.049 52.0663 12.0579 51.9712 12.0605H51.9439V12.1478H51.944ZM51.0958 10.9257L51.4939 9.71443H51.5155V9.73257L51.5112 9.73343L51.5155 9.73257V9.71443H51.5285L51.9209 10.9257H51.0958ZM51.1456 10.8899H51.8717L51.5106 9.77749L51.1456 10.8899ZM51.4983 9.73778L51.5066 9.73461L51.4983 9.73778ZM54.1685 11.7596C54.1685 11.9258 54.2836 11.9753 54.4167 11.9923C54.5868 12.0049 54.7737 12.0049 54.9655 11.9839C55.1393 11.9629 55.2891 11.8633 55.3633 11.7596C55.4295 11.668 55.467 11.5517 55.492 11.4604H55.6123C55.5669 11.6971 55.5087 11.9303 55.4586 12.1668C55.0941 12.1668 54.7279 12.1504 54.3631 12.1504C53.9972 12.1504 53.6324 12.1668 53.2671 12.1668V12.0415H53.3241C53.4744 12.0415 53.6368 12.0213 53.6368 11.7636V9.62919C53.6368 9.41261 53.4744 9.39219 53.3241 9.39219H53.2671V9.2675C53.4865 9.2675 53.7027 9.28391 53.9224 9.28391C54.1348 9.28391 54.3422 9.2675 54.554 9.2675V9.39219H54.4495C54.2923 9.39219 54.1685 9.3968 54.1685 9.61623V11.7596Z" fill="white"/>
<path d="M55.4603 12.1843C55.0944 12.1843 54.7291 12.1676 54.3649 12.1676C53.9992 12.1676 53.6339 12.1843 53.268 12.1843H53.2504V12.0237H53.3259C53.4764 12.0202 53.6187 12.0098 53.6204 11.7636V9.62836C53.6186 9.4265 53.4773 9.41267 53.3259 9.40977H53.2504V9.24968H53.268C53.4888 9.24968 53.705 9.26552 53.9244 9.26552C54.1351 9.26552 54.3424 9.24968 54.5557 9.24968H54.5728V9.40977H54.4516C54.2906 9.41437 54.1904 9.40689 54.1873 9.61627V11.7596C54.1884 11.9143 54.2898 11.956 54.4193 11.9742C54.4927 11.9793 54.5696 11.9825 54.6497 11.9825C54.7513 11.9825 54.8569 11.9776 54.9641 11.9661C55.1333 11.9463 55.279 11.8486 55.3504 11.7495C55.4143 11.6608 55.4512 11.5468 55.4759 11.4561L55.4797 11.4423H55.636L55.6322 11.4642C55.5853 11.7018 55.5283 11.9339 55.478 12.1703L55.4745 12.1844H55.4603V12.1843ZM55.4454 12.1481C55.4934 11.9229 55.5479 11.7025 55.5925 11.4779H55.5073C55.4814 11.5684 55.4445 11.6798 55.3792 11.7705C55.3017 11.8782 55.148 11.9796 54.968 12.0017C54.8592 12.013 54.7515 12.0187 54.6496 12.0187C54.5693 12.0187 54.4913 12.015 54.4161 12.0098C54.2811 11.9948 54.1501 11.9372 54.1507 11.7596V9.61621C54.1507 9.38555 54.2966 9.37374 54.4515 9.37374H54.5373V9.28562C54.3327 9.28678 54.1311 9.30201 53.9243 9.30201C53.7093 9.30201 53.4991 9.28678 53.2861 9.28562V9.37374H53.3258C53.4741 9.37374 53.6554 9.39966 53.6554 9.62831V11.7636C53.6554 12.0323 53.4749 12.0602 53.3258 12.0602H53.2861V12.148C53.6451 12.1477 54.0041 12.1322 54.3649 12.1322C54.7256 12.1322 55.0861 12.1477 55.4454 12.1481ZM55.5637 9.14941C55.8139 9.14941 56.0007 9.34178 56.0007 9.58828C56.0007 9.83363 55.8139 10.0243 55.5637 10.0243C55.3135 10.0243 55.1263 9.83363 55.1263 9.58828C55.1263 9.34181 55.3135 9.14941 55.5637 9.14941ZM55.5637 9.94277C55.7592 9.94277 55.9095 9.77575 55.9095 9.58828C55.9095 9.39966 55.7615 9.2312 55.5637 9.2312C55.3671 9.2312 55.2167 9.39969 55.2167 9.58828C55.2167 9.77575 55.3671 9.94277 55.5637 9.94277ZM55.346 9.81865V9.79706C55.3998 9.78957 55.4096 9.7913 55.4096 9.75789V9.43421C55.4096 9.38874 55.4047 9.37319 55.348 9.37547V9.3533H55.5717C55.6489 9.3533 55.7194 9.38987 55.7194 9.46935C55.7194 9.53443 55.6762 9.58252 55.616 9.60124L55.6877 9.70142C55.7214 9.74692 55.7591 9.78957 55.7842 9.80451V9.81863H55.699C55.6581 9.81863 55.6224 9.73252 55.5418 9.61705H55.4934V9.76247C55.4934 9.79127 55.5035 9.78954 55.5573 9.79703V9.81863H55.346V9.81865ZM55.4934 9.58828H55.545C55.6014 9.58828 55.6278 9.54537 55.6278 9.47655C55.6278 9.40686 55.587 9.38235 55.5421 9.38235H55.4934V9.58828Z" fill="white"/>
</svg>
