<svg width="38" height="29" viewBox="0 0 38 29" fill="none" xmlns="http://www.w3.org/2000/svg">
<path d="M36.5486 28.6039V28.6785H36.6181C36.6311 28.6787 36.644 28.6754 36.6554 28.669C36.6599 28.6658 36.6635 28.6615 36.666 28.6565C36.6684 28.6515 36.6696 28.646 36.6693 28.6405C36.6696 28.635 36.6684 28.6296 36.666 28.6248C36.6635 28.6199 36.6599 28.6157 36.6554 28.6127C36.6441 28.6059 36.6312 28.6026 36.6181 28.6032H36.5486V28.6039ZM36.6188 28.5512C36.6486 28.5494 36.6781 28.5579 36.7023 28.5754C36.712 28.5834 36.7197 28.5935 36.7248 28.6049C36.7299 28.6164 36.7322 28.6289 36.7316 28.6414C36.732 28.6522 36.7302 28.6629 36.7261 28.6729C36.7221 28.6829 36.7159 28.6919 36.7081 28.6993C36.6895 28.7156 36.666 28.7253 36.6414 28.7271L36.7346 28.8333H36.6628L36.5771 28.7279H36.5493V28.8333H36.4893V28.5514H36.6198L36.6188 28.5512ZM36.6002 28.9306C36.6317 28.9309 36.6629 28.9246 36.6917 28.912C36.7195 28.9 36.7448 28.8829 36.7663 28.8615C36.7878 28.8401 36.8049 28.8148 36.8168 28.7869C36.8412 28.7279 36.8412 28.6615 36.8168 28.6024C36.8047 28.5747 36.7876 28.5494 36.7663 28.5279C36.7448 28.5065 36.7195 28.4894 36.6917 28.4774C36.6627 28.4655 36.6316 28.4595 36.6002 28.4599C36.5683 28.4596 36.5366 28.4655 36.507 28.4774C36.4785 28.4891 36.4527 28.5063 36.4307 28.5279C36.3978 28.5617 36.3755 28.6045 36.3666 28.6509C36.3578 28.6973 36.3628 28.7452 36.381 28.7888C36.3923 28.8168 36.4093 28.8421 36.4307 28.8633C36.4527 28.8849 36.4786 28.9021 36.507 28.9138C36.5364 28.9264 36.5682 28.9328 36.6002 28.9325V28.9306ZM36.6002 28.392C36.6821 28.392 36.7608 28.4241 36.8192 28.4815C36.8474 28.5091 36.8698 28.5419 36.8852 28.5782C36.9011 28.6155 36.9093 28.6556 36.9093 28.6961C36.9093 28.7366 36.9011 28.7767 36.8852 28.814C36.8695 28.85 36.8471 28.8828 36.8192 28.9107C36.7906 28.9381 36.7573 28.9602 36.721 28.9759C36.6828 28.9921 36.6417 29.0004 36.6002 29.0001C36.5582 29.0004 36.5166 28.9922 36.4779 28.9759C36.4411 28.9605 36.4075 28.9384 36.3789 28.9107C36.3511 28.8818 36.329 28.8479 36.3139 28.8108C36.2979 28.7735 36.2897 28.7334 36.2897 28.6929C36.2897 28.6524 36.2979 28.6123 36.3139 28.575C36.3293 28.5388 36.3517 28.5059 36.3799 28.4783C36.4081 28.4501 36.4418 28.4279 36.4788 28.4131C36.5175 28.3968 36.5591 28.3886 36.6011 28.3889L36.6002 28.392ZM8.05776 27.3032C8.05776 26.7656 8.41007 26.3239 8.98588 26.3239C9.53614 26.3239 9.90746 26.7466 9.90746 27.3032C9.90746 27.8598 9.53614 28.2825 8.98588 28.2825C8.41007 28.2825 8.05776 27.8408 8.05776 27.3032ZM10.5347 27.3032V25.7732H9.86944V26.1459C9.65843 25.8705 9.33837 25.6978 8.90311 25.6978C8.04565 25.6978 7.37272 26.3701 7.37272 27.3039C7.37272 28.2377 8.04527 28.9101 8.90311 28.9101C9.33818 28.9101 9.65843 28.7372 9.86944 28.4619V28.8333H10.534V27.3032H10.5347ZM33.0137 27.3032C33.0137 26.7656 33.366 26.3239 33.942 26.3239C34.4929 26.3239 34.8636 26.7466 34.8636 27.3032C34.8636 27.8598 34.4929 28.2825 33.942 28.2825C33.3662 28.2825 33.0137 27.8408 33.0137 27.3032ZM35.4914 27.3032V24.5452H34.8256V26.1459C34.6146 25.8705 34.2945 25.6978 33.8593 25.6978C33.0018 25.6978 32.3289 26.3701 32.3289 27.3039C32.3289 28.2377 33.0014 28.9101 33.8593 28.9101C34.2945 28.9101 34.6146 28.7372 34.8256 28.4619V28.8333H35.4914V27.3032ZM18.7917 26.2924C19.2205 26.2924 19.4958 26.5611 19.5661 27.0343H17.9786C18.0497 26.5926 18.3179 26.2924 18.7919 26.2924H18.7917ZM18.8052 25.6961C17.9086 25.6961 17.2813 26.3483 17.2813 27.3023C17.2813 28.2748 17.9337 28.9084 18.8497 28.9084C19.3105 28.9084 19.7325 28.7935 20.1039 28.4798L19.7778 27.9869C19.5213 28.1919 19.1948 28.3069 18.8877 28.3069C18.459 28.3069 18.0687 28.1084 17.9727 27.5577H20.2444C20.2509 27.475 20.2576 27.3915 20.2576 27.3021C20.2509 26.3485 19.6611 25.6959 18.8048 25.6959L18.8052 25.6961ZM26.837 27.3021C26.837 26.7644 27.1893 26.3228 27.7651 26.3228C28.3154 26.3228 28.6867 26.7454 28.6867 27.3021C28.6867 27.8587 28.3154 28.2814 27.7651 28.2814C27.1893 28.2814 26.8368 27.8397 26.8368 27.3021H26.837ZM29.3138 27.3021V25.7732H28.6489V26.1459C28.4371 25.8705 28.1178 25.6978 27.6825 25.6978C26.8251 25.6978 26.1522 26.3701 26.1522 27.3039C26.1522 28.2377 26.8247 28.9101 27.6825 28.9101C28.1178 28.9101 28.4371 28.7372 28.6489 28.4619V28.8333H29.314V27.3032L29.3138 27.3021ZM23.08 27.3021C23.08 28.2299 23.7261 28.9082 24.7122 28.9082C25.173 28.9082 25.48 28.8058 25.812 28.5436L25.4925 28.0059C25.2427 28.1854 24.9804 28.2814 24.6909 28.2814C24.1598 28.2748 23.7693 27.8909 23.7693 27.3021C23.7693 26.7132 24.1598 26.3295 24.6909 26.3228C24.9797 26.3228 25.2419 26.4188 25.4925 26.5982L25.812 26.0606C25.4794 25.7984 25.1724 25.6959 24.7122 25.6959C23.7261 25.6959 23.08 26.374 23.08 27.3021ZM31.6565 25.6959C31.2727 25.6959 31.0227 25.8754 30.8499 26.1441V25.7732H30.1906V28.8317H30.8567V27.1172C30.8567 26.6111 31.0742 26.3299 31.5091 26.3299C31.6515 26.3278 31.7929 26.354 31.9251 26.4068L32.1302 25.7799C31.9829 25.722 31.7909 25.6965 31.6562 25.6965L31.6565 25.6959ZM13.8238 26.0164C13.5038 25.8055 13.0628 25.6965 12.5762 25.6965C11.8012 25.6965 11.3022 26.0679 11.3022 26.6756C11.3022 27.1742 11.6737 27.4819 12.3578 27.5779L12.672 27.6226C13.0368 27.6738 13.2091 27.7698 13.2091 27.9426C13.2091 28.179 12.9668 28.314 12.5117 28.314C12.0509 28.314 11.7184 28.1667 11.4941 27.994L11.1815 28.5126C11.5463 28.7813 12.0071 28.9096 12.5061 28.9096C13.3897 28.9096 13.9018 28.4936 13.9018 27.9113C13.9018 27.3736 13.4988 27.0924 12.8329 26.9965L12.5194 26.951C12.2314 26.9137 12.0006 26.8558 12.0006 26.6508C12.0006 26.4271 12.2181 26.2926 12.5831 26.2926C12.9736 26.2926 13.3517 26.4398 13.537 26.5548L13.825 26.0172L13.8238 26.0164ZM22.408 25.697C22.0242 25.697 21.7742 25.8765 21.6022 26.1452V25.7732H20.9429V28.8317H21.6081V27.1172C21.6081 26.6111 21.8257 26.3299 22.2606 26.3299C22.403 26.3278 22.5444 26.354 22.6766 26.4068L22.8817 25.7799C22.7344 25.722 22.5424 25.6965 22.4076 25.6965L22.408 25.697ZM16.7308 25.7732H15.643V24.8454H14.9704V25.7732H14.3499V26.3811H14.9704V27.7763C14.9704 28.486 15.2459 28.9086 16.0329 28.9086C16.3217 28.9086 16.6542 28.8192 16.8652 28.6721L16.6731 28.1026C16.4745 28.2176 16.257 28.2756 16.084 28.2756C15.7515 28.2756 15.643 28.0706 15.643 27.7637V26.3817H16.7308V25.7732ZM6.78443 28.8324V26.913C6.78443 26.1901 6.32363 25.7037 5.5808 25.6972C5.19028 25.6907 4.78746 25.8122 4.50543 26.2414C4.29442 25.9022 3.96187 25.6972 3.49437 25.6972C3.1676 25.6972 2.84828 25.7932 2.59831 26.1513V25.7732H1.93247V28.8317H2.60353V27.1358C2.60353 26.6049 2.89806 26.3228 3.35288 26.3228C3.79467 26.3228 4.01817 26.6107 4.01817 27.1291V28.8313H4.69072V27.1355C4.69072 26.6046 4.99773 26.3224 5.43932 26.3224C5.89359 26.3224 6.11038 26.6103 6.11038 27.1288V28.8309L6.78443 28.8324Z" fill="white"/>
<path d="M36.9266 18.6584V18.2112H36.8101L36.6753 18.5181L36.5413 18.2112H36.4244V18.6584H36.5072V18.3215L36.6332 18.6122H36.719L36.845 18.3208V18.6584H36.927H36.9266ZM36.1875 18.6584V18.2878H36.3366V18.2123H35.9556V18.2878H36.1048V18.6584H36.1868H36.1875Z" fill="#F79410"/>
<path d="M23.6834 20.5767H13.6015V2.46326H23.6836L23.6834 20.5767Z" fill="#FF5F00"/>
<path d="M14.2414 11.5198C14.2414 7.84545 15.9623 4.57235 18.642 2.46303C16.6136 0.86403 14.1047 -0.00380321 11.5215 1.25293e-05C5.15822 1.25293e-05 0 5.1575 0 11.5198C0 17.882 5.15822 23.0395 11.5215 23.0395C14.1048 23.0434 16.6137 22.1755 18.6422 20.5765C15.9627 18.4675 14.2414 15.1943 14.2414 11.5198Z" fill="#EB001B"/>
<path d="M37.2866 11.5204C37.2866 17.8826 32.1284 23.0401 25.765 23.0401C23.1815 23.0439 20.6723 22.1761 18.6434 20.5771C21.3239 18.4678 23.0448 15.1949 23.0448 11.5204C23.0448 7.84587 21.3239 4.57296 18.6434 2.46364C20.6722 0.864688 23.1814 -0.00312598 25.7649 0.000622444C32.1282 0.000622444 37.2864 5.15811 37.2864 11.5204" fill="#F79E1B"/>
</svg>
