<svg width="23" height="16" viewBox="0 0 23 16" fill="none" xmlns="http://www.w3.org/2000/svg">
<path d="M22.5128 2.43485L22.5404 2.61451C22.2743 1.67126 21.5559 0.943431 20.643 0.678515L20.6237 0.673931C18.9071 0.208265 11.9993 0.208265 11.9993 0.208265C11.9993 0.208265 5.10886 0.199098 3.37479 0.673931C2.44445 0.943431 1.72514 1.67126 1.46365 2.59526L1.45906 2.61451C0.817732 5.96126 0.813144 9.98268 1.4875 13.5659L1.45906 13.3844C1.72514 14.3277 2.44353 15.0555 3.35644 15.3204L3.37571 15.325C5.09051 15.7916 12.0002 15.7916 12.0002 15.7916C12.0002 15.7916 18.8897 15.7916 20.6246 15.325C21.5559 15.0555 22.2752 14.3277 22.5367 13.4037L22.5413 13.3844C22.833 11.8279 23 10.0368 23 8.2071C23 8.14018 23 8.07235 22.9991 8.00451C23 7.94218 23 7.86793 23 7.79368C23 5.9631 22.833 4.17193 22.5128 2.43485ZM9.79543 11.3467V4.66143L15.5445 8.0091L9.79543 11.3467Z" fill="white"/>
</svg>
